<?xml version="1.0" encoding="utf-8"?>
<!-- Generator: Adobe Illustrator 26.2.1, SVG Export Plug-In . SVG Version: 6.00 Build 0)  -->
<svg version="1.1" id="Layer_1" xmlns="http://www.w3.org/2000/svg" xmlns:xlink="http://www.w3.org/1999/xlink" x="0px" y="0px"
	 viewBox="0 0 100 100" style="enable-background:new 0 0 100 100;" xml:space="preserve">
<style type="text/css">
	.st0{fill:#0E223B;stroke:#FFFFFF;stroke-miterlimit:10;}
	.st1{display:none;fill:#FFFFFF;}
	.st2{fill:#FFFFFF;}
</style>
<circle class="st0" cx="50" cy="50" r="49"/>
<path class="st1" d="M74.3,57.1c-1.5-1.6-4.5-2.5-8.8-2.5c-2.7,0-5.4,0.3-8.1,0.8l0.3,0c-1.7-1.7-3.3-3.6-4.7-5.5l-0.1-0.1
	c-1-1.5-2-3-2.8-4.5l-0.1-0.3c1.4-3.8,2.3-8.1,2.5-12.6l0-0.1c0-3.5-1.3-7.1-4.9-7.1c-1.2,0-2.2,0.7-2.8,1.7l0,0
	c-1.6,2.9-0.9,9.4,1.9,15.7c-1.1,3.2-2.3,6.4-3.5,9.6c-1.2,2.9-2.6,5.8-4,8.6c-8.2,3.3-13.4,7.2-13.9,10.2c-0.2,1.1,0.1,2.2,1,3
	c0.8,0.7,1.9,1.1,3.1,1.1h0h0c5.4,0,11.1-8.9,14-14.3c2.2-0.8,4.4-1.4,6.7-2.1c2.3-0.6,4.7-1.2,7.1-1.6c5.7,5.2,10.7,6.1,13.3,6.1
	c3.1,0,4.2-1.3,4.6-2.3C75.3,59.4,75.1,58,74.3,57.1L74.3,57.1L74.3,57.1L74.3,57.1z M71.4,59.3c-0.4,1.3-1.6,2.1-2.9,1.9l0,0
	c-0.4,0-0.9-0.1-1.3-0.2l0,0c-3-0.8-5.8-2.3-8.2-4.4l0,0c1.9-0.3,4-0.5,6.2-0.5h0h0c1.3,0,2.6,0.1,3.9,0.3l-0.1,0
	C70.1,56.6,71.8,57.3,71.4,59.3L71.4,59.3L71.4,59.3z M55.7,55.7c-1.9,0.4-4,0.9-6.1,1.4c-1.8,0.5-3.5,1-5.3,1.6
	c0.9-1.8,1.7-3.6,2.5-5.4c0.9-2.1,1.6-4.3,2.4-6.4c0.7,1.3,1.5,2.6,2.4,3.7C52.8,52.5,54.2,54.2,55.7,55.7L55.7,55.7L55.7,55.7
	L55.7,55.7z M46,27.6c0.3-0.5,0.8-0.9,1.4-0.9h0c1.6,0,1.9,1.8,1.9,3.3c-0.2,3.6-0.9,7.2-2.1,10.7l0.1-0.3
	C45,34.4,44.9,29.5,46,27.6L46,27.6z M37.8,62.9c-3.8,6.3-7.4,10.3-9.6,10.3c-0.4,0-0.8-0.1-1.1-0.4l0,0c-0.5-0.4-0.7-1-0.5-1.6l0,0
	C27,68.9,31.3,65.7,37.8,62.9L37.8,62.9z"/>
<path class="st1" d="M65.1,26.2c-0.5-0.4-1.2-0.5-1.8-0.2l0,0l-23.1,8.2c-0.8,0.3-1.3,1-1.3,1.8v26.7c-1.2-0.6-2.5-1-3.8-1h0
	c-4.1-0.2-7.5,3-7.7,7v0c0.2,4.1,3.6,7.2,7.7,7.1h0c4.1,0.2,7.5-3,7.7-7V41.9l19.2-6.7v18.7c-1.2-0.6-2.5-1-3.8-1h0
	c-4.1-0.2-7.5,3-7.7,7v0c0.2,4.1,3.6,7.2,7.7,7.1h0l0.2,0c3.5,0,6.5-2.4,7.3-5.7l0-0.1c0.1-0.2,0.1-0.5,0.1-0.7V27.8
	C65.9,27.1,65.6,26.5,65.1,26.2L65.1,26.2L65.1,26.2z"/>
<path class="st2" d="M37.3,72.8L37.3,72.8c-1.1-0.1-2-1.2-1.9-2.3c0.1-0.5,0.3-1,0.6-1.3l0,0l12.3-14.3c0.7-0.9,2-1.1,2.9-0.4
	c0.1,0.1,0.3,0.2,0.4,0.4l0,0l12.3,14.3c0.8,0.8,0.9,2.1,0.1,2.9c-0.3,0.4-0.8,0.6-1.3,0.6h0v0L37.3,72.8z M62.2,62.4l-3.6-4.2h12.2
	V35.3H29.2v22.9h12.2l-3.6,4.2h-8.6c-2.3,0-4.2-1.9-4.2-4.2V35.3c0-2.3,1.9-4.2,4.2-4.2h41.7c2.3,0,4.2,1.9,4.2,4.2v22.9
	c0,2.3-1.9,4.2-4.2,4.2H62.2z"/>
<path class="st1" d="M25,31.2h50v37.5H25V31.2z M28.1,34.4v31.2h43.8V34.4H28.1z M31.3,62.6c0,0,3.2-21.9,8.1-21.9
	s6.9,15.5,10.8,15.5s3.6-6,6.4-6c2.8,0,12.6,12.5,12.6,12.5L31.3,62.6z M64.1,46.9c-2.6,0-4.7-2.1-4.7-4.7c0-2.6,2.1-4.7,4.7-4.7
	s4.7,2.1,4.7,4.7C68.8,44.8,66.7,46.9,64.1,46.9"/>
<path class="st1" d="M50,52.7l0.1,0c2.8,0,5-2.2,5.1-4.9v0c-0.1-2.8-2.3-4.9-5.1-4.9l-0.2,0h0l-0.1,0c-2.8,0-5,2.2-5.1,4.9v0
	c0.1,2.8,2.3,4.9,5.1,4.9L50,52.7L50,52.7z M50,35.4c-7-0.2-12.9,5.3-13.1,12.3v0c0,3.2,1.3,6.3,3.6,8.5l0,0c0.7-1.1,1.6-2,2.7-2.6
	l0,0c-1.6-1.6-2.5-3.7-2.5-5.9v0c0.2-4.8,4.1-8.7,8.9-8.7l0.3,0h0l0.3,0c4.8,0,8.8,3.8,8.9,8.6v0c0,2.2-0.9,4.4-2.5,5.9l0,0
	c1.1,0.6,2,1.5,2.8,2.6l0,0c2.3-2.2,3.7-5.3,3.7-8.6v0C62.9,40.7,57,35.2,50,35.4L50,35.4L50,35.4z M50,28c-11.6,0-21,8.8-21,19.8
	c0.1,7,3.8,13.4,9.9,16.8l0.1,0.1c-0.1-0.9-0.2-1.8-0.2-2.7v0c0-0.6,0.1-1.3,0.2-1.9l0,0.1c-3.8-2.9-6.1-7.5-6.1-12.3v0
	c0-8.9,7.6-16.1,17.1-16.1s17.1,7.2,17.1,16.1c0,4.8-2.3,9.4-6.1,12.3l0,0c0.1,0.5,0.2,1.1,0.2,1.8v0c0,1-0.1,1.9-0.2,2.9l0-0.1
	c6-3.4,9.9-9.6,10-16.8v0C71,36.8,61.6,28,50,28L50,28z M50,55.2l-0.2,0c-3.8,0-6.9,3-7,6.8v0c0,3.8,3.2,16,7.2,16s7.2-12.3,7.2-16
	C57.1,58.1,53.9,55.1,50,55.2L50,55.2L50,55.2z"/>
<path class="st1" d="M44.8,57.5l13.5-7l-13.5-7.1L44.8,57.5z M50,33.4c3.1,0,6.1,0,9.1,0.1s5,0.2,6.4,0.3l2,0.1c0,0,0.2,0,0.5,0
	c0.2,0,0.5,0,0.7,0.1l0,0c0.1,0,0.3,0.1,0.7,0.1c0.3,0.1,0.6,0.1,0.8,0.2l0,0c0.2,0.1,0.5,0.2,0.8,0.4c0.3,0.2,0.6,0.3,0.9,0.6l0,0
	c0.3,0.2,0.6,0.5,0.8,0.7l0,0c0.1,0.2,0.3,0.3,0.4,0.5l0,0c0.3,0.5,0.6,1,0.8,1.6l0,0.1c0.4,0.8,0.6,1.8,0.7,2.8l0,0.1
	c0.1,1.2,0.3,2.5,0.4,3.8c0.1,1.3,0.1,2.4,0.2,3.2v4.9l0,0.4c0,2.7-0.2,5.4-0.5,8l0-0.3c-0.1,1-0.4,1.9-0.7,2.9l0-0.1
	c-0.2,0.6-0.5,1.2-0.9,1.7l0,0l-0.4,0.5c-0.2,0.3-0.5,0.5-0.8,0.7l0,0c-0.3,0.2-0.5,0.4-0.8,0.5l0,0c-0.3,0.1-0.6,0.3-0.8,0.4
	c-0.2,0.1-0.5,0.2-0.8,0.2l0,0c-0.3,0.1-0.5,0.1-0.7,0.1S68.2,68,67.9,68c-0.3,0-0.4,0-0.5,0C62.8,68.4,57,68.6,50,68.6
	c-3.9,0-7.2-0.1-10-0.2s-4.7-0.2-5.6-0.2L33,68.1L32,68c-0.5-0.1-1.1-0.2-1.6-0.3l0.1,0c-0.5-0.2-1-0.4-1.5-0.6l0,0
	c-0.6-0.3-1.1-0.7-1.6-1.1l0,0c-0.2-0.2-0.3-0.3-0.4-0.5l0,0c-0.3-0.5-0.6-1-0.8-1.6l0-0.1c-0.4-0.9-0.6-1.8-0.7-2.8l0-0.1
	c-0.1-1.2-0.3-2.5-0.4-3.8S25,54.8,25,54v-4.9l0-0.4c0-2.7,0.2-5.4,0.5-8l0,0.3c0.1-1,0.4-1.9,0.7-2.9l0,0.1
	c0.2-0.7,0.5-1.2,0.9-1.7l0,0l0.4-0.5c0.2-0.3,0.5-0.5,0.8-0.7l0,0c0.3-0.2,0.5-0.4,0.8-0.5l0,0c0.3-0.1,0.6-0.3,0.8-0.4
	c0.2-0.1,0.5-0.2,0.8-0.2l0,0c0.3-0.1,0.5-0.1,0.7-0.1c0.2,0,0.4-0.1,0.6-0.1l0,0c0.3,0,0.5,0,0.5,0C37.2,33.6,43,33.4,50,33.4
	L50,33.4z"/>
</svg>
