<?xml version="1.0" encoding="utf-8"?>
<!-- Generator: Adobe Illustrator 26.2.1, SVG Export Plug-In . SVG Version: 6.00 Build 0)  -->
<svg version="1.1" id="Layer_1" xmlns="http://www.w3.org/2000/svg" xmlns:xlink="http://www.w3.org/1999/xlink" x="0px"
  y="0px" viewBox="0 0 100 100" style="enable-background:new 0 0 100 100;" xml:space="preserve">
  <style type="text/css">
    .st0 {
      fill: #0E223B;
      stroke: #FFFFFF;
      stroke-miterlimit: 10;
    }

    .st1 {
      fill: #FFFFFF;
    }

    .st2 {
      fill: #FFFFFF;
    }
  </style>
  <circle class="st0" cx="50" cy="50" r="49" />
  <path class="st1" d="M25,31.2h50v37.5H25V31.2z M28.1,34.4v31.2h43.8V34.4H28.1z M31.3,62.6c0,0,3.2-21.9,8.1-21.9
	s6.9,15.5,10.8,15.5s3.6-6,6.4-6c2.8,0,12.6,12.5,12.6,12.5L31.3,62.6z M64.1,46.9c-2.6,0-4.7-2.1-4.7-4.7c0-2.6,2.1-4.7,4.7-4.7
	s4.7,2.1,4.7,4.7C68.8,44.8,66.7,46.9,64.1,46.9" />

</svg>