<?xml version="1.0" encoding="utf-8"?>
<!-- Generator: Adobe Illustrator 26.2.1, SVG Export Plug-In . SVG Version: 6.00 Build 0)  -->
<svg version="1.1" id="Layer_1" xmlns="http://www.w3.org/2000/svg" xmlns:xlink="http://www.w3.org/1999/xlink" x="0px"
	y="0px" viewBox="0 0 100 100" style="enable-background:new 0 0 100 100;" xml:space="preserve">
	<style type="text/css">
		.st0 {
			fill: #0E223B;
			stroke: #FFFFFF;
			stroke-miterlimit: 10;
		}

		.st2 {
			fill: #FFFFFF;
		}
	</style>
	<circle class="st0" cx="50" cy="50" r="49" />
	<path class="st2" d="M37.3,72.8L37.3,72.8c-1.1-0.1-2-1.2-1.9-2.3c0.1-0.5,0.3-1,0.6-1.3l0,0l12.3-14.3c0.7-0.9,2-1.1,2.9-0.4
	c0.1,0.1,0.3,0.2,0.4,0.4l0,0l12.3,14.3c0.8,0.8,0.9,2.1,0.1,2.9c-0.3,0.4-0.8,0.6-1.3,0.6h0v0L37.3,72.8z M62.2,62.4l-3.6-4.2h12.2
	V35.3H29.2v22.9h12.2l-3.6,4.2h-8.6c-2.3,0-4.2-1.9-4.2-4.2V35.3c0-2.3,1.9-4.2,4.2-4.2h41.7c2.3,0,4.2,1.9,4.2,4.2v22.9
	c0,2.3-1.9,4.2-4.2,4.2H62.2z" />
</svg>