<?xml version="1.0" encoding="utf-8"?>
<!-- Generator: Adobe Illustrator 26.2.1, SVG Export Plug-In . SVG Version: 6.00 Build 0)  -->
<svg version="1.1" id="Layer_1" xmlns="http://www.w3.org/2000/svg" xmlns:xlink="http://www.w3.org/1999/xlink" x="0px"
  y="0px" viewBox="0 0 100 100" style="enable-background:new 0 0 100 100;" xml:space="preserve">
  <style type="text/css">
    .st0 {
      fill: #0E223B;
      stroke: #FFFFFF;
      stroke-miterlimit: 10;
    }

    .st1 {
      fill: #FFFFFF;
    }
  </style>
  <circle class="st0" cx="50" cy="50" r="49" />
  <path class="st1" d="M65.1,26.2c-0.5-0.4-1.2-0.5-1.8-0.2l0,0l-23.1,8.2c-0.8,0.3-1.3,1-1.3,1.8v26.7c-1.2-0.6-2.5-1-3.8-1h0
	c-4.1-0.2-7.5,3-7.7,7v0c0.2,4.1,3.6,7.2,7.7,7.1h0c4.1,0.2,7.5-3,7.7-7V41.9l19.2-6.7v18.7c-1.2-0.6-2.5-1-3.8-1h0
	c-4.1-0.2-7.5,3-7.7,7v0c0.2,4.1,3.6,7.2,7.7,7.1h0l0.2,0c3.5,0,6.5-2.4,7.3-5.7l0-0.1c0.1-0.2,0.1-0.5,0.1-0.7V27.8
	C65.9,27.1,65.6,26.5,65.1,26.2L65.1,26.2L65.1,26.2z" />
</svg>