<?xml version="1.0" encoding="utf-8"?>
<!-- Generator: Adobe Illustrator 26.2.1, SVG Export Plug-In . SVG Version: 6.00 Build 0)  -->
<svg version="1.1" id="Layer_1" xmlns="http://www.w3.org/2000/svg" xmlns:xlink="http://www.w3.org/1999/xlink" x="0px"
  y="0px" viewBox="0 0 100 100" style="enable-background:new 0 0 100 100;" xml:space="preserve">
  <style type="text/css">
    .st0 {
      fill: #0E223B;
      stroke: #FFFFFF;
      stroke-miterlimit: 10;
    }

    .st2 {
      fill: #FFFFFF;
    }
  </style>
  <circle class="st0" cx="50" cy="50" r="49" />
  <path class="st2" d="M50,52.7l0.1,0c2.8,0,5-2.2,5.1-4.9v0c-0.1-2.8-2.3-4.9-5.1-4.9l-0.2,0h0l-0.1,0c-2.8,0-5,2.2-5.1,4.9v0
	c0.1,2.8,2.3,4.9,5.1,4.9L50,52.7L50,52.7z M50,35.4c-7-0.2-12.9,5.3-13.1,12.3v0c0,3.2,1.3,6.3,3.6,8.5l0,0c0.7-1.1,1.6-2,2.7-2.6
	l0,0c-1.6-1.6-2.5-3.7-2.5-5.9v0c0.2-4.8,4.1-8.7,8.9-8.7l0.3,0h0l0.3,0c4.8,0,8.8,3.8,8.9,8.6v0c0,2.2-0.9,4.4-2.5,5.9l0,0
	c1.1,0.6,2,1.5,2.8,2.6l0,0c2.3-2.2,3.7-5.3,3.7-8.6v0C62.9,40.7,57,35.2,50,35.4L50,35.4L50,35.4z M50,28c-11.6,0-21,8.8-21,19.8
	c0.1,7,3.8,13.4,9.9,16.8l0.1,0.1c-0.1-0.9-0.2-1.8-0.2-2.7v0c0-0.6,0.1-1.3,0.2-1.9l0,0.1c-3.8-2.9-6.1-7.5-6.1-12.3v0
	c0-8.9,7.6-16.1,17.1-16.1s17.1,7.2,17.1,16.1c0,4.8-2.3,9.4-6.1,12.3l0,0c0.1,0.5,0.2,1.1,0.2,1.8v0c0,1-0.1,1.9-0.2,2.9l0-0.1
	c6-3.4,9.9-9.6,10-16.8v0C71,36.8,61.6,28,50,28L50,28z M50,55.2l-0.2,0c-3.8,0-6.9,3-7,6.8v0c0,3.8,3.2,16,7.2,16s7.2-12.3,7.2-16
	C57.1,58.1,53.9,55.1,50,55.2L50,55.2L50,55.2z" />
</svg>