<?xml version="1.0" encoding="utf-8"?>
<!-- Generator: Adobe Illustrator 26.2.1, SVG Export Plug-In . SVG Version: 6.00 Build 0)  -->
<svg version="1.1" id="Layer_1" xmlns="http://www.w3.org/2000/svg" xmlns:xlink="http://www.w3.org/1999/xlink" x="0px"
	y="0px" viewBox="0 0 100 100" style="enable-background:new 0 0 100 100;" xml:space="preserve">
	<style type="text/css">
		.st0 {
			fill: #0E223B;
			stroke: #FFFFFF;
			stroke-miterlimit: 10;
		}

		.st2 {
			fill: #FFFFFF;
		}
	</style>
	<circle class="st0" cx="50" cy="50" r="49" />
	<path class="st2" d="M44.8,57.5l13.5-7l-13.5-7.1L44.8,57.5z M50,33.4c3.1,0,6.1,0,9.1,0.1s5,0.2,6.4,0.3l2,0.1c0,0,0.2,0,0.5,0
	c0.2,0,0.5,0,0.7,0.1l0,0c0.1,0,0.3,0.1,0.7,0.1c0.3,0.1,0.6,0.1,0.8,0.2l0,0c0.2,0.1,0.5,0.2,0.8,0.4c0.3,0.2,0.6,0.3,0.9,0.6l0,0
	c0.3,0.2,0.6,0.5,0.8,0.7l0,0c0.1,0.2,0.3,0.3,0.4,0.5l0,0c0.3,0.5,0.6,1,0.8,1.6l0,0.1c0.4,0.8,0.6,1.8,0.7,2.8l0,0.1
	c0.1,1.2,0.3,2.5,0.4,3.8c0.1,1.3,0.1,2.4,0.2,3.2v4.9l0,0.4c0,2.7-0.2,5.4-0.5,8l0-0.3c-0.1,1-0.4,1.9-0.7,2.9l0-0.1
	c-0.2,0.6-0.5,1.2-0.9,1.7l0,0l-0.4,0.5c-0.2,0.3-0.5,0.5-0.8,0.7l0,0c-0.3,0.2-0.5,0.4-0.8,0.5l0,0c-0.3,0.1-0.6,0.3-0.8,0.4
	c-0.2,0.1-0.5,0.2-0.8,0.2l0,0c-0.3,0.1-0.5,0.1-0.7,0.1S68.2,68,67.9,68c-0.3,0-0.4,0-0.5,0C62.8,68.4,57,68.6,50,68.6
	c-3.9,0-7.2-0.1-10-0.2s-4.7-0.2-5.6-0.2L33,68.1L32,68c-0.5-0.1-1.1-0.2-1.6-0.3l0.1,0c-0.5-0.2-1-0.4-1.5-0.6l0,0
	c-0.6-0.3-1.1-0.7-1.6-1.1l0,0c-0.2-0.2-0.3-0.3-0.4-0.5l0,0c-0.3-0.5-0.6-1-0.8-1.6l0-0.1c-0.4-0.9-0.6-1.8-0.7-2.8l0-0.1
	c-0.1-1.2-0.3-2.5-0.4-3.8S25,54.8,25,54v-4.9l0-0.4c0-2.7,0.2-5.4,0.5-8l0,0.3c0.1-1,0.4-1.9,0.7-2.9l0,0.1
	c0.2-0.7,0.5-1.2,0.9-1.7l0,0l0.4-0.5c0.2-0.3,0.5-0.5,0.8-0.7l0,0c0.3-0.2,0.5-0.4,0.8-0.5l0,0c0.3-0.1,0.6-0.3,0.8-0.4
	c0.2-0.1,0.5-0.2,0.8-0.2l0,0c0.3-0.1,0.5-0.1,0.7-0.1c0.2,0,0.4-0.1,0.6-0.1l0,0c0.3,0,0.5,0,0.5,0C37.2,33.6,43,33.4,50,33.4
	L50,33.4z" />
</svg>