<svg xmlns="http://www.w3.org/2000/svg" xmlns:xlink="http://www.w3.org/1999/xlink" width="229" zoomAndPan="magnify" viewBox="0 0 171.75 142.499996" height="190" preserveAspectRatio="xMidYMid meet" version="1.0"><defs><g/><clipPath id="31c0cdbe13"><path d="M 0.175781 0 L 171.324219 0 L 171.324219 142 L 0.175781 142 Z M 0.175781 0 " clip-rule="nonzero"/></clipPath><clipPath id="ae6079cd03"><path d="M 0.175781 0 L 170.707031 0 L 170.707031 41 L 0.175781 41 Z M 0.175781 0 " clip-rule="nonzero"/></clipPath><clipPath id="8e1d22c8ef"><path d="M 0.175781 23.664062 L 170.707031 23.664062 L 170.707031 141.5625 L 0.175781 141.5625 Z M 0.175781 23.664062 " clip-rule="nonzero"/></clipPath><clipPath id="22eb0f1791"><path d="M 45.34375 34.539062 L 125.566406 34.539062 L 125.566406 107.023438 L 45.34375 107.023438 Z M 45.34375 34.539062 " clip-rule="nonzero"/></clipPath></defs><g clip-path="url(#31c0cdbe13)"><path fill="#ffffff" d="M 0.175781 0 L 171.324219 0 L 171.324219 142 L 0.175781 142 Z M 0.175781 0 " fill-opacity="1" fill-rule="nonzero"/></g><g clip-path="url(#ae6079cd03)"><path fill="#0097b2" d="M 0.175781 40.222656 L 0.175781 15.347656 C 0.175781 6.871094 7.046875 0 15.523438 0 L 48.496094 0 C 51.746094 0 54.910156 1.03125 57.535156 2.945312 L 71.890625 13.410156 L 155.386719 13.410156 C 163.863281 13.410156 170.734375 20.28125 170.734375 28.757812 L 170.734375 40.222656 L 0.175781 40.222656 " fill-opacity="1" fill-rule="nonzero"/></g><g clip-path="url(#8e1d22c8ef)"><path fill="#458099" d="M 155.386719 23.699219 L 15.523438 23.699219 C 7.046875 23.699219 0.175781 30.570312 0.175781 39.046875 L 0.175781 126.214844 C 0.175781 134.691406 7.046875 141.5625 15.523438 141.5625 L 155.386719 141.5625 C 163.863281 141.5625 170.734375 134.691406 170.734375 126.214844 L 170.734375 39.046875 C 170.734375 30.570312 163.863281 23.699219 155.386719 23.699219 " fill-opacity="1" fill-rule="nonzero"/></g><g clip-path="url(#22eb0f1791)"><path fill="#ffffff" d="M 123.832031 103.617188 L 110.46875 103.617188 C 115.433594 95.511719 124.058594 83.296875 124.058594 77.234375 C 124.058594 68.628906 117.539062 61.664062 109.316406 60.765625 L 109.316406 44.417969 C 109.316406 43.476562 108.554688 42.714844 107.613281 42.714844 L 101.367188 42.714844 L 101.367188 36.242188 C 101.367188 35.300781 100.601562 34.539062 99.664062 34.539062 L 77.148438 34.539062 C 76.207031 34.539062 75.445312 35.300781 75.445312 36.242188 L 75.445312 42.714844 L 69.191406 42.714844 C 68.25 42.714844 67.488281 43.476562 67.488281 44.417969 L 67.488281 57.101562 L 59.410156 57.101562 C 58.46875 57.101562 57.707031 57.867188 57.707031 58.804688 L 57.707031 65.738281 L 54.503906 65.738281 C 53.566406 65.738281 52.800781 66.503906 52.800781 67.441406 L 52.800781 103.617188 L 47.09375 103.617188 C 46.152344 103.617188 45.390625 104.382812 45.390625 105.320312 C 45.390625 106.261719 46.152344 107.023438 47.09375 107.023438 C 50.242188 107.023438 119.960938 107.023438 123.832031 107.023438 C 124.769531 107.023438 125.535156 106.261719 125.535156 105.320312 C 125.535156 104.382812 124.769531 103.617188 123.832031 103.617188 Z M 67.488281 103.617188 L 56.207031 103.617188 L 56.207031 69.144531 C 58.839844 69.144531 64.875 69.144531 67.488281 69.144531 Z M 67.488281 65.738281 L 61.113281 65.738281 L 61.113281 60.507812 L 67.488281 60.507812 Z M 78.851562 37.945312 L 97.957031 37.945312 L 97.957031 42.714844 L 78.851562 42.714844 Z M 90.773438 103.617188 L 86.035156 103.617188 L 86.035156 93.488281 L 90.773438 93.488281 Z M 94.179688 103.617188 L 94.179688 91.785156 C 94.179688 90.84375 93.417969 90.082031 92.476562 90.082031 L 84.332031 90.082031 C 83.394531 90.082031 82.628906 90.84375 82.628906 91.785156 L 82.628906 103.617188 L 70.894531 103.617188 C 70.894531 95.472656 70.894531 54.132812 70.894531 46.121094 L 105.910156 46.121094 L 105.910156 60.742188 C 97.515625 61.539062 90.925781 68.632812 90.925781 77.234375 C 90.925781 81.617188 95.660156 89.496094 101.847656 99.339844 C 102.832031 100.90625 103.738281 102.347656 104.511719 103.617188 Z M 107.488281 85.015625 C 102.886719 85.015625 99.144531 81.269531 99.144531 76.667969 C 99.144531 72.070312 102.886719 68.328125 107.488281 68.328125 C 112.089844 68.328125 115.832031 72.070312 115.832031 76.667969 C 115.832031 81.269531 112.089844 85.015625 107.488281 85.015625 Z M 107.488281 85.015625 " fill-opacity="1" fill-rule="nonzero"/></g><path fill="#ffffff" d="M 107.488281 71.734375 C 104.765625 71.734375 102.550781 73.949219 102.550781 76.667969 C 102.550781 79.394531 104.765625 81.609375 107.488281 81.609375 C 110.210938 81.609375 112.425781 79.394531 112.425781 76.667969 C 112.425781 73.949219 110.210938 71.734375 107.488281 71.734375 Z M 107.488281 71.734375 " fill-opacity="1" fill-rule="nonzero"/><path fill="#ffffff" d="M 86.433594 54.355469 L 77.914062 54.355469 C 76.972656 54.355469 76.210938 55.117188 76.210938 56.058594 L 76.210938 63.207031 C 76.210938 64.148438 76.972656 64.914062 77.914062 64.914062 C 78.851562 64.914062 79.617188 64.148438 79.617188 63.207031 L 79.617188 57.761719 L 84.730469 57.761719 L 84.730469 63.207031 C 84.730469 64.148438 85.492188 64.914062 86.433594 64.914062 C 87.375 64.914062 88.136719 64.148438 88.136719 63.207031 L 88.136719 56.058594 C 88.136719 55.117188 87.375 54.355469 86.433594 54.355469 Z M 86.433594 54.355469 " fill-opacity="1" fill-rule="nonzero"/><path fill="#ffffff" d="M 86.433594 68.558594 L 77.914062 68.558594 C 76.972656 68.558594 76.210938 69.320312 76.210938 70.261719 L 76.210938 77.417969 C 76.210938 78.359375 76.972656 79.121094 77.914062 79.121094 C 78.851562 79.121094 79.617188 78.359375 79.617188 77.417969 L 79.617188 71.964844 L 84.730469 71.964844 L 84.730469 77.417969 C 84.730469 78.359375 85.492188 79.121094 86.433594 79.121094 C 87.375 79.121094 88.136719 78.359375 88.136719 77.417969 L 88.136719 70.261719 C 88.136719 69.320312 87.375 68.558594 86.433594 68.558594 Z M 86.433594 68.558594 " fill-opacity="1" fill-rule="nonzero"/><g fill="#ffffff" fill-opacity="1"><g transform="translate(41.765174, 123.89656)"><g><path d="M 1.3125 -11.015625 L 3.859375 -11.015625 L 3.859375 -2.078125 L 9.375 -2.078125 L 9.375 0 L 1.3125 0 Z M 1.3125 -11.015625 "/></g></g></g><g fill="#ffffff" fill-opacity="1"><g transform="translate(51.265678, 123.89656)"><g><path d="M 5.15625 0.125 C 4.269531 0.125 3.472656 -0.0546875 2.765625 -0.421875 C 2.054688 -0.796875 1.5 -1.3125 1.09375 -1.96875 C 0.695312 -2.632812 0.5 -3.390625 0.5 -4.234375 C 0.5 -5.066406 0.695312 -5.8125 1.09375 -6.46875 C 1.5 -7.132812 2.054688 -7.65625 2.765625 -8.03125 C 3.472656 -8.40625 4.269531 -8.59375 5.15625 -8.59375 C 6.050781 -8.59375 6.847656 -8.40625 7.546875 -8.03125 C 8.253906 -7.65625 8.804688 -7.132812 9.203125 -6.46875 C 9.597656 -5.8125 9.796875 -5.066406 9.796875 -4.234375 C 9.796875 -3.390625 9.597656 -2.632812 9.203125 -1.96875 C 8.804688 -1.3125 8.253906 -0.796875 7.546875 -0.421875 C 6.847656 -0.0546875 6.050781 0.125 5.15625 0.125 Z M 5.15625 -1.890625 C 5.789062 -1.890625 6.304688 -2.097656 6.703125 -2.515625 C 7.109375 -2.941406 7.3125 -3.515625 7.3125 -4.234375 C 7.3125 -4.941406 7.109375 -5.507812 6.703125 -5.9375 C 6.304688 -6.363281 5.789062 -6.578125 5.15625 -6.578125 C 4.53125 -6.578125 4.007812 -6.363281 3.59375 -5.9375 C 3.1875 -5.507812 2.984375 -4.941406 2.984375 -4.234375 C 2.984375 -3.515625 3.1875 -2.941406 3.59375 -2.515625 C 4.007812 -2.097656 4.53125 -1.890625 5.15625 -1.890625 Z M 5.15625 -1.890625 "/></g></g></g><g fill="#ffffff" fill-opacity="1"><g transform="translate(61.568375, 123.89656)"><g><path d="M 5.21875 0.125 C 4.320312 0.125 3.515625 -0.0546875 2.796875 -0.421875 C 2.078125 -0.796875 1.515625 -1.3125 1.109375 -1.96875 C 0.703125 -2.632812 0.5 -3.390625 0.5 -4.234375 C 0.5 -5.066406 0.703125 -5.8125 1.109375 -6.46875 C 1.515625 -7.132812 2.078125 -7.65625 2.796875 -8.03125 C 3.515625 -8.40625 4.320312 -8.59375 5.21875 -8.59375 C 6.113281 -8.59375 6.894531 -8.40625 7.5625 -8.03125 C 8.226562 -7.65625 8.710938 -7.125 9.015625 -6.4375 L 7.109375 -5.40625 C 6.671875 -6.1875 6.035156 -6.578125 5.203125 -6.578125 C 4.566406 -6.578125 4.035156 -6.363281 3.609375 -5.9375 C 3.191406 -5.519531 2.984375 -4.953125 2.984375 -4.234375 C 2.984375 -3.503906 3.191406 -2.929688 3.609375 -2.515625 C 4.035156 -2.097656 4.566406 -1.890625 5.203125 -1.890625 C 6.046875 -1.890625 6.679688 -2.273438 7.109375 -3.046875 L 9.015625 -2.015625 C 8.710938 -1.335938 8.226562 -0.8125 7.5625 -0.4375 C 6.894531 -0.0625 6.113281 0.125 5.21875 0.125 Z M 5.21875 0.125 "/></g></g></g><g fill="#ffffff" fill-opacity="1"><g transform="translate(70.864396, 123.89656)"><g><path d="M 4.546875 -8.59375 C 5.859375 -8.59375 6.863281 -8.28125 7.5625 -7.65625 C 8.269531 -7.03125 8.625 -6.085938 8.625 -4.828125 L 8.625 0 L 6.328125 0 L 6.328125 -1.046875 C 5.867188 -0.265625 5.007812 0.125 3.75 0.125 C 3.09375 0.125 2.523438 0.015625 2.046875 -0.203125 C 1.578125 -0.421875 1.210938 -0.722656 0.953125 -1.109375 C 0.703125 -1.503906 0.578125 -1.945312 0.578125 -2.4375 C 0.578125 -3.226562 0.875 -3.847656 1.46875 -4.296875 C 2.0625 -4.742188 2.976562 -4.96875 4.21875 -4.96875 L 6.171875 -4.96875 C 6.171875 -5.507812 6.003906 -5.921875 5.671875 -6.203125 C 5.347656 -6.492188 4.863281 -6.640625 4.21875 -6.640625 C 3.769531 -6.640625 3.328125 -6.566406 2.890625 -6.421875 C 2.453125 -6.285156 2.082031 -6.097656 1.78125 -5.859375 L 0.890625 -7.5625 C 1.359375 -7.894531 1.914062 -8.148438 2.5625 -8.328125 C 3.207031 -8.503906 3.867188 -8.59375 4.546875 -8.59375 Z M 4.359375 -1.53125 C 4.773438 -1.53125 5.144531 -1.625 5.46875 -1.8125 C 5.800781 -2.007812 6.035156 -2.296875 6.171875 -2.671875 L 6.171875 -3.546875 L 4.484375 -3.546875 C 3.472656 -3.546875 2.96875 -3.210938 2.96875 -2.546875 C 2.96875 -2.234375 3.09375 -1.984375 3.34375 -1.796875 C 3.59375 -1.617188 3.929688 -1.53125 4.359375 -1.53125 Z M 4.359375 -1.53125 "/></g></g></g><g fill="#ffffff" fill-opacity="1"><g transform="translate(80.569379, 123.89656)"><g><path d="M 6.59375 -0.40625 C 6.351562 -0.226562 6.054688 -0.09375 5.703125 0 C 5.347656 0.0820312 4.976562 0.125 4.59375 0.125 C 3.582031 0.125 2.800781 -0.128906 2.25 -0.640625 C 1.707031 -1.160156 1.4375 -1.914062 1.4375 -2.90625 L 1.4375 -6.390625 L 0.125 -6.390625 L 0.125 -8.28125 L 1.4375 -8.28125 L 1.4375 -10.34375 L 3.890625 -10.34375 L 3.890625 -8.28125 L 6 -8.28125 L 6 -6.390625 L 3.890625 -6.390625 L 3.890625 -2.9375 C 3.890625 -2.582031 3.976562 -2.304688 4.15625 -2.109375 C 4.34375 -1.921875 4.601562 -1.828125 4.9375 -1.828125 C 5.320312 -1.828125 5.65625 -1.929688 5.9375 -2.140625 Z M 6.59375 -0.40625 "/></g></g></g><g fill="#ffffff" fill-opacity="1"><g transform="translate(87.411626, 123.89656)"><g><path d="M 1.140625 -8.46875 L 3.59375 -8.46875 L 3.59375 0 L 1.140625 0 Z M 2.359375 -9.640625 C 1.910156 -9.640625 1.539062 -9.769531 1.25 -10.03125 C 0.96875 -10.300781 0.828125 -10.628906 0.828125 -11.015625 C 0.828125 -11.398438 0.96875 -11.722656 1.25 -11.984375 C 1.539062 -12.253906 1.910156 -12.390625 2.359375 -12.390625 C 2.804688 -12.390625 3.171875 -12.257812 3.453125 -12 C 3.742188 -11.75 3.890625 -11.4375 3.890625 -11.0625 C 3.890625 -10.65625 3.742188 -10.316406 3.453125 -10.046875 C 3.171875 -9.773438 2.804688 -9.640625 2.359375 -9.640625 Z M 2.359375 -9.640625 "/></g></g></g><g fill="#ffffff" fill-opacity="1"><g transform="translate(92.146147, 123.89656)"><g><path d="M 5.15625 0.125 C 4.269531 0.125 3.472656 -0.0546875 2.765625 -0.421875 C 2.054688 -0.796875 1.5 -1.3125 1.09375 -1.96875 C 0.695312 -2.632812 0.5 -3.390625 0.5 -4.234375 C 0.5 -5.066406 0.695312 -5.8125 1.09375 -6.46875 C 1.5 -7.132812 2.054688 -7.65625 2.765625 -8.03125 C 3.472656 -8.40625 4.269531 -8.59375 5.15625 -8.59375 C 6.050781 -8.59375 6.847656 -8.40625 7.546875 -8.03125 C 8.253906 -7.65625 8.804688 -7.132812 9.203125 -6.46875 C 9.597656 -5.8125 9.796875 -5.066406 9.796875 -4.234375 C 9.796875 -3.390625 9.597656 -2.632812 9.203125 -1.96875 C 8.804688 -1.3125 8.253906 -0.796875 7.546875 -0.421875 C 6.847656 -0.0546875 6.050781 0.125 5.15625 0.125 Z M 5.15625 -1.890625 C 5.789062 -1.890625 6.304688 -2.097656 6.703125 -2.515625 C 7.109375 -2.941406 7.3125 -3.515625 7.3125 -4.234375 C 7.3125 -4.941406 7.109375 -5.507812 6.703125 -5.9375 C 6.304688 -6.363281 5.789062 -6.578125 5.15625 -6.578125 C 4.53125 -6.578125 4.007812 -6.363281 3.59375 -5.9375 C 3.1875 -5.507812 2.984375 -4.941406 2.984375 -4.234375 C 2.984375 -3.515625 3.1875 -2.941406 3.59375 -2.515625 C 4.007812 -2.097656 4.53125 -1.890625 5.15625 -1.890625 Z M 5.15625 -1.890625 "/></g></g></g><g fill="#ffffff" fill-opacity="1"><g transform="translate(102.448844, 123.89656)"><g><path d="M 6.28125 -8.59375 C 7.320312 -8.59375 8.164062 -8.273438 8.8125 -7.640625 C 9.457031 -7.015625 9.78125 -6.082031 9.78125 -4.84375 L 9.78125 0 L 7.328125 0 L 7.328125 -4.46875 C 7.328125 -5.132812 7.179688 -5.632812 6.890625 -5.96875 C 6.597656 -6.300781 6.175781 -6.46875 5.625 -6.46875 C 5 -6.46875 4.503906 -6.273438 4.140625 -5.890625 C 3.773438 -5.503906 3.59375 -4.9375 3.59375 -4.1875 L 3.59375 0 L 1.140625 0 L 1.140625 -8.46875 L 3.484375 -8.46875 L 3.484375 -7.46875 C 3.804688 -7.832031 4.207031 -8.109375 4.6875 -8.296875 C 5.164062 -8.492188 5.695312 -8.59375 6.28125 -8.59375 Z M 6.28125 -8.59375 "/></g></g></g><g fill="#ffffff" fill-opacity="1"><g transform="translate(113.317794, 123.89656)"><g><path d="M 3.984375 0.125 C 3.273438 0.125 2.582031 0.0390625 1.90625 -0.125 C 1.238281 -0.300781 0.707031 -0.519531 0.3125 -0.78125 L 1.140625 -2.546875 C 1.515625 -2.304688 1.96875 -2.109375 2.5 -1.953125 C 3.03125 -1.804688 3.554688 -1.734375 4.078125 -1.734375 C 5.117188 -1.734375 5.640625 -1.988281 5.640625 -2.5 C 5.640625 -2.738281 5.492188 -2.910156 5.203125 -3.015625 C 4.921875 -3.117188 4.488281 -3.207031 3.90625 -3.28125 C 3.207031 -3.394531 2.632812 -3.519531 2.1875 -3.65625 C 1.738281 -3.789062 1.347656 -4.03125 1.015625 -4.375 C 0.679688 -4.71875 0.515625 -5.210938 0.515625 -5.859375 C 0.515625 -6.390625 0.671875 -6.863281 0.984375 -7.28125 C 1.296875 -7.695312 1.742188 -8.019531 2.328125 -8.25 C 2.921875 -8.476562 3.625 -8.59375 4.4375 -8.59375 C 5.03125 -8.59375 5.625 -8.523438 6.21875 -8.390625 C 6.8125 -8.265625 7.300781 -8.082031 7.6875 -7.84375 L 6.875 -6.109375 C 6.132812 -6.523438 5.320312 -6.734375 4.4375 -6.734375 C 3.914062 -6.734375 3.519531 -6.660156 3.25 -6.515625 C 2.988281 -6.367188 2.859375 -6.179688 2.859375 -5.953125 C 2.859375 -5.679688 3 -5.492188 3.28125 -5.390625 C 3.570312 -5.285156 4.023438 -5.1875 4.640625 -5.09375 C 5.335938 -4.976562 5.90625 -4.851562 6.34375 -4.71875 C 6.78125 -4.59375 7.160156 -4.359375 7.484375 -4.015625 C 7.816406 -3.671875 7.984375 -3.1875 7.984375 -2.5625 C 7.984375 -2.039062 7.820312 -1.570312 7.5 -1.15625 C 7.1875 -0.75 6.726562 -0.429688 6.125 -0.203125 C 5.519531 0.015625 4.804688 0.125 3.984375 0.125 Z M 3.984375 0.125 "/></g></g></g></svg>