<svg enable-background="new 0 0 50.554 48.859" height="309.96521" viewBox="0 0 50.554 48.859" width="322.616851"
    xmlns="http://www.w3.org/2000/svg" fill="#888888">
    <path
        d="m46.677 48.353c1.861 0 3.37-1.52 3.37-3.394v-41.054c0-1.874-1.509-3.394-3.37-3.394h-42.794c-1.86 0-3.37 1.52-3.37 3.394v41.054c0 1.874 1.509 3.394 3.37 3.394z"
        fill="transparent" />
    <path fill="#888888"
        d="m46.677 48.859h-42.794c-2.138 0-3.877-1.75-3.877-3.9v-41.054c0-2.151 1.739-3.901 3.877-3.901h42.793c2.138 0 3.877 1.75 3.877 3.901v41.054c.001 2.15-1.739 3.9-3.876 3.9zm-42.794-47.84c-1.578 0-2.862 1.294-2.862 2.886v41.054c0 1.592 1.284 2.887 2.862 2.887h42.793c1.579 0 2.863-1.295 2.863-2.887v-41.054c0-1.592-1.284-2.886-2.863-2.886z" />
    <path fill="#888888"
        d="m10.403 12.905h-3.327l-.73 2.419h-2.921l3.764-11.407h3.36l3.603 11.407h-3.149zm-1.558-6.667h-.033l-1.217 4.477h2.239z" />
    <path fill="#888888" d="m14.573 3.067h2.922v12.257h-2.922z" />
    <path fill="#888888"
        d="m19.396 8.804h-1.493v-1.994h1.493v-1.209c0-1.978 1.104-2.729 2.807-2.729 1.007 0 1.574.131 1.899.196l-.065 2.091c-.179-.065-.406-.163-.747-.163-.666 0-.974.359-.974 1.111v.703h1.591v1.994h-1.591v6.521h-2.921v-6.521z" />
    <path fill="#888888"
        d="m24.425 9.277c0-1.209-.049-2.075-.098-2.467h2.744c.048.343.064.947.064 1.421h.032c.244-.67.763-1.618 2.158-1.618.211 0 .31.017.487.05v2.564c-.13-.048-.536-.098-.876-.098-.941 0-1.59.834-1.59 1.962v4.232h-2.922v-6.046z" />
    <path fill="#888888"
        d="m32.688 11.875c.081 1.374 1.021 1.781 2.109 1.781.795 0 1.752-.358 2.467-.669l.064 2.043c-.697.229-1.769.474-2.953.49-3.425.016-4.414-2.305-4.414-4.495 0-2.336 1.379-4.411 3.928-4.411 2.645 0 3.894 2.107 3.894 4.428v.833zm2.434-1.535v-.245c0-1.145-.309-1.684-1.186-1.684-.826 0-1.313.752-1.313 1.929z" />
    <path fill="#888888"
        d="m46.612 13.82c0 .507.032.997.064 1.504h-2.791c-.033-.458-.081-.915-.081-1.373h-.033c-.616 1.144-1.362 1.504-2.239 1.504-2.223 0-3.164-2.01-3.164-4.593 0-1.994.908-4.248 3.019-4.248 1.12 0 1.735.457 2.337 1.438h.032c-.032-.359-.064-.883-.064-1.52v-3.464h2.921v10.752zm-4.056-.424c.73 0 1.136-.981 1.136-2.402 0-1.422-.405-2.386-1.136-2.386-.861 0-1.137.964-1.137 2.386 0 1.42.275 2.402 1.137 2.402" />
    <path
        d="m23.672 35.966c1.073 2.181 3.645 2.64 6.438 2.322.31-.052.499.06.579.224.122.247-.154.641-.551.787-4.616.972-9.021-.623-10.667-4.105-1.66-3.374.158-8.533 3.54-11.604l-4.671-5.408c-3.801 6.714-7.831 14.463-4.747 20.866 3.158 6.418 12.205 6.823 19.778 2.737 1.218-.66 2.321-1.415 3.363-2.293l-10.293-11.928c-2.669 2.205-4.078 5.878-2.769 8.402" />
    <path
        d="m8.658 38.691c-3.794-6.079-1.048-13.79 2.249-20.9h-7.588v23.854c.004 1.221.76 2.055 1.382 2.535.735.535 1.353.5 1.353.5h9.71c-2.932-1.242-5.42-3.265-7.106-5.989" />
    <path
        d="m26.556 21.257c6.814-3.45 13.912-1.15 16.469 4.183 2.166 4.402.321 9.37-3.86 13.813l4.67 5.427.272-.056c1.234-.208 2.719-1.032 2.692-2.998v-.084-23.751h-26.325l4.043 4.636c.659-.431 1.338-.822 2.039-1.17" />
    <path d="m40.107 28.638c-2.239-3.597-7.255-4.527-12.024-2.097l10.172 11.681c2.581-2.928 3.472-6.702 1.852-9.584" />
    <path d="m32.983 43.721c-.729.363-1.467.68-2.209.96h10.52l-3.568-3.992c-1.541 1.229-3.127 2.225-4.743 3.032" />
</svg>