<svg xmlns="http://www.w3.org/2000/svg" xmlns:xlink="http://www.w3.org/1999/xlink" viewBox="0 0 150 150" fill="#377dff">
    <defs>
        <clipPath id="clip-path">
            <rect y="29.33" width="65.07" height="120.67" style="fill:none" />
        </clipPath>
        <clipPath id="clip-path-2">
            <rect x="83.73" y="29.33" width="66.27" height="120.67" style="fill:none" />
        </clipPath>
    </defs>
    <g id="Layer_2" data-name="Layer 2">
        <g id="Layer_1-2" data-name="Layer 1">
            <g style="clip-path:url(#clip-path)">
                <path
                    d="M25,138.09v11.85h5v-12.5a2.41,2.41,0,0,0-.31-1.2L7.2,95.78A17.57,17.57,0,0,1,5,87.28V40a5,5,0,0,1,10,0V75.85a9.5,9.5,0,0,0,.17,12.58L35.64,111l3.69-3.37L18.86,85.06A4.53,4.53,0,0,1,19,78.8a4.62,4.62,0,0,1,3.33-1.33A4.51,4.51,0,0,1,25.59,79L43.13,98.44a3.07,3.07,0,0,0,.75.58A32,32,0,0,1,60,126.77v23.17h5V125h-.06A37.1,37.1,0,0,0,46.57,94.81L29.31,75.63a9.47,9.47,0,0,0-6.84-3.16,10.14,10.14,0,0,0-2.48.29V40A10,10,0,1,0,0,40V87.28A22.39,22.39,0,0,0,2.83,98.2L25,138.09" />
            </g>
            <g style="clip-path:url(#clip-path-2)">
                <path
                    d="M139.94,30a10,10,0,0,0-10,10V72.76a10.14,10.14,0,0,0-2.48-.29,9.49,9.49,0,0,0-6.84,3.16L103.36,94.8A37.07,37.07,0,0,0,85,125H85v25h5V126.77A32.07,32.07,0,0,1,106.18,99a2.36,2.36,0,0,0,.63-.51L124.34,79a4.52,4.52,0,0,1,3.25-1.5,4.62,4.62,0,0,1,3.34,1.33,4.53,4.53,0,0,1,.15,6.26l-20.47,22.52L114.3,111l20.48-22.52a9.49,9.49,0,0,0,.16-12.58V40a5,5,0,0,1,10,0V87A17.63,17.63,0,0,1,142.49,96l-22.23,40.29a2.52,2.52,0,0,0-.31,1.2v12.5h5V138.09l21.88-39.66A22.56,22.56,0,0,0,149.94,87V40a10,10,0,0,0-10-10" />
            </g>
            <path
                d="M112.45,67.88l-35,20.25V48.94l35-19.67ZM75,44.61l-16-9L93.84,16l16,9Zm-2.5,43.52-35-20.25V29.27l35,19.67ZM75,5.37l13.78,7.75L53.86,32.74,40.08,25Zm42.48,64V25a2.5,2.5,0,0,0-.09-.66c0-.06-.06-.13-.08-.2a2.71,2.71,0,0,0-.17-.39,1.39,1.39,0,0,0-.15-.19,1.49,1.49,0,0,0-.24-.32c-.06-.06-.13-.09-.19-.15a2.72,2.72,0,0,0-.32-.25h0L76.19.32a2.49,2.49,0,0,0-2.45,0l-40,22.49h-.05c-.11.07-.21.17-.32.25s-.12.09-.18.15a2,2,0,0,0-.25.32.85.85,0,0,0-.14.19,1.92,1.92,0,0,0-.17.39c0,.07-.07.14-.09.2a3,3,0,0,0-.09.66V69.33a2.51,2.51,0,0,0,1.25,2.17l40,23.12h0a1.85,1.85,0,0,0,.48.19,1.34,1.34,0,0,0,.12.06A3,3,0,0,0,75,95a2.8,2.8,0,0,0,.64-.08s.09,0,.13-.06a2,2,0,0,0,.48-.19h0l40-23.12a2.51,2.51,0,0,0,1.25-2.17" />
            <path d="M107.45,62.48h-5v5h5v-5" />
            <path d="M97.46,67.48h-5v5h5v-5" />
            <path d="M87.46,72.47h-5v5h5v-5" />
        </g>
    </g>
</svg>