<svg xmlns="http://www.w3.org/2000/svg" xmlns:xlink="http://www.w3.org/1999/xlink" viewBox="0 0 131 150" fill="#0062ff">
    <defs>
        <clipPath id="clip-path">
            <rect x="100.5" y="61.33" width="30.5" height="48" style="fill:none" />
        </clipPath>
        <clipPath id="clip-path-2">
            <rect y="57.33" width="97.83" height="92.67" style="fill:none" />
        </clipPath>
    </defs>
    <g id="Layer_2" data-name="Layer 2">
        <g id="Layer_1-2" data-name="Layer 1">
            <path
                d="M25.77,53.86a21.08,21.08,0,1,0-21-21.07A21.12,21.12,0,0,0,25.77,53.86Zm0-37.46A16.39,16.39,0,1,1,9.41,32.79,16.42,16.42,0,0,1,25.77,16.4Z" />
            <path
                d="M25.77,42.16a9.37,9.37,0,1,0-9.35-9.37A9.38,9.38,0,0,0,25.77,42.16Zm0-14.06a4.69,4.69,0,1,1-4.68,4.69A4.69,4.69,0,0,1,25.77,28.1Z" />
            <path
                d="M78.35,0a26.93,26.93,0,1,0,26.88,26.93A26.92,26.92,0,0,0,78.35,0Zm0,49.18a22.25,22.25,0,1,1,22.21-22.25A22.21,22.21,0,0,1,78.35,49.18Z" />
            <path
                d="M78.35,15.22A11.71,11.71,0,1,0,90,26.93,11.73,11.73,0,0,0,78.35,15.22Zm0,18.74a7,7,0,1,1,7-7A7,7,0,0,1,78.35,34Z" />
            <g style="clip-path:url(#clip-path)">
                <path
                    d="M128.61,62.65a4.76,4.76,0,0,0-4.68,0,.11.11,0,0,0-.11.12s-13.79,8.66-14,8.66h-8.18v4.68h5.84V94.85h-5.84v4.68h8.18c.12,0,14,8.78,14,8.78a4.69,4.69,0,0,0,4.67,0,4.49,4.49,0,0,0,2.34-4.1V66.74A4.41,4.41,0,0,0,128.61,62.65ZM112.24,95.2V75.76l14-9v37.47Z" />
            </g>
            <g style="clip-path:url(#clip-path-2)">
                <path
                    d="M90,58.55H12.91a7,7,0,0,0-7,7V77.28H2.39a2.35,2.35,0,0,0,0,4.69H5.9v23.42a7,7,0,0,0,7,7H30.44v2.35a7,7,0,0,0,7,7H49.14v3.4L29.39,146a2.41,2.41,0,0,0,1.75,4,2.13,2.13,0,0,0,1.64-.7L49.14,132v15.57a2.34,2.34,0,1,0,4.67,0V132l16.48,17.21a2.24,2.24,0,0,0,3.27,0,2.37,2.37,0,0,0,.12-3.28L53.81,125.18v-3.4H65.5a7,7,0,0,0,7-7v-2.35H90a7,7,0,0,0,7-7V65.57A7,7,0,0,0,90,58.55Zm-22.2,56.21a2.34,2.34,0,0,1-2.34,2.33h-28a2.35,2.35,0,0,1-2.34-2.33v-2.35H67.84Zm24.54-9.37A2.34,2.34,0,0,1,90,107.73H12.91a2.35,2.35,0,0,1-2.34-2.34V65.57a2.36,2.36,0,0,1,2.34-2.34H90a2.35,2.35,0,0,1,2.34,2.34Z" />
            </g>
            <path
                d="M44.46,51.52a2.35,2.35,0,0,0,2.34,2.34h9.35a2.34,2.34,0,1,0,0-4.68H46.8A2.35,2.35,0,0,0,44.46,51.52Z" />
            <path
                d="M22.26,98.36a2.33,2.33,0,0,1-.18.9,2.42,2.42,0,0,1-.51.76,2.56,2.56,0,0,1-.75.51,2.52,2.52,0,0,1-.9.17,2.43,2.43,0,0,1-.89-.17,2.48,2.48,0,0,1-.76-.51,2.42,2.42,0,0,1-.51-.76,2.34,2.34,0,0,1,0-1.8,2.42,2.42,0,0,1,.51-.76,2.28,2.28,0,0,1,.76-.5,2.25,2.25,0,0,1,.89-.18,2.34,2.34,0,0,1,1.65.68,2.42,2.42,0,0,1,.51.76A2.33,2.33,0,0,1,22.26,98.36Z" />
            <path
                d="M31.61,98.36a2.33,2.33,0,0,1-.18.9,2.26,2.26,0,0,1-.51.76,2.56,2.56,0,0,1-.75.51,2.52,2.52,0,0,1-.9.17,2.43,2.43,0,0,1-.89-.17,2.48,2.48,0,0,1-.76-.51,2.42,2.42,0,0,1-.51-.76,2.34,2.34,0,0,1,0-1.8,2.42,2.42,0,0,1,.51-.76,2.28,2.28,0,0,1,.76-.5,2.25,2.25,0,0,1,.89-.18,2.34,2.34,0,0,1,1.65.68,2.26,2.26,0,0,1,.51.76A2.33,2.33,0,0,1,31.61,98.36Z" />
            <path
                d="M41,98.36a2.33,2.33,0,0,1-.18.9,2.57,2.57,0,0,1-.5.76,2.74,2.74,0,0,1-.76.51,2.47,2.47,0,0,1-1.8,0A2.56,2.56,0,0,1,37,100a2.42,2.42,0,0,1-.51-.76,2.34,2.34,0,0,1,0-1.8A2.42,2.42,0,0,1,37,96.7a2.34,2.34,0,0,1,2.55-.5,2.51,2.51,0,0,1,.76.5,2.57,2.57,0,0,1,.5.76A2.33,2.33,0,0,1,41,98.36Z" />
        </g>
    </g>
</svg>