<svg xmlns="http://www.w3.org/2000/svg" xmlns:xlink="http://www.w3.org/1999/xlink" width="229" zoomAndPan="magnify"
  viewBox="0 0 171.75 142.499996" height="190" preserveAspectRatio="xMidYMid meet" version="1.0">
  <defs>
    <g />
    <clipPath id="9760b690dd">
      <path d="M 0.175781 0 L 170.917969 0 L 170.917969 41 L 0.175781 41 Z M 0.175781 0 " clip-rule="nonzero" />
    </clipPath>
    <clipPath id="13a6f23483">
      <path
        d="M 0.175781 23.707031 L 170.917969 23.707031 L 170.917969 141.75 L 0.175781 141.75 Z M 0.175781 23.707031 "
        clip-rule="nonzero" />
    </clipPath>
    <clipPath id="281e445bf4">
      <path
        d="M 48.351562 33.652344 L 122.90625 33.652344 L 122.90625 108.207031 L 48.351562 108.207031 Z M 48.351562 33.652344 "
        clip-rule="nonzero" />
    </clipPath>
  </defs>
  <path fill="#3696b2"
    d="M 0.175781 40.296875 L 0.175781 15.378906 C 0.175781 6.886719 7.058594 0.00390625 15.550781 0.00390625 L 48.582031 0.00390625 C 51.835938 0.00390625 55.007812 1.035156 57.636719 2.953125 L 72.019531 13.433594 L 155.664062 13.433594 C 164.15625 13.433594 171.042969 20.316406 171.042969 28.808594 L 171.042969 40.296875 L 0.175781 40.296875 " />
  <path fill="#247d9d"
    d="M 155.664062 23.742188 L 15.550781 23.742188 C 7.058594 23.742188 0.175781 30.625 0.175781 39.117188 L 0.175781 126.441406 C 0.175781 134.933594 7.058594 141.816406 15.550781 141.816406 L 155.664062 141.816406 C 164.15625 141.816406 171.042969 134.933594 171.042969 126.441406 L 171.042969 39.117188 C 171.042969 30.625 164.15625 23.742188 155.664062 23.742188 " />
  <path fill="#ffffff"
    d="M 110.261719 38.035156 L 107.523438 38.035156 L 107.523438 35.84375 C 107.523438 34.632812 106.542969 33.652344 105.332031 33.652344 C 104.121094 33.652344 103.140625 34.632812 103.140625 35.84375 L 103.140625 38.035156 L 68.074219 38.035156 L 68.074219 35.84375 C 68.074219 34.632812 67.09375 33.652344 65.882812 33.652344 C 64.671875 33.652344 63.691406 34.632812 63.691406 35.84375 L 63.691406 38.035156 L 60.953125 38.035156 C 54.003906 38.035156 48.351562 43.6875 48.351562 50.636719 L 48.351562 95.5625 C 48.351562 102.511719 54.003906 108.164062 60.953125 108.164062 L 110.261719 108.164062 C 117.210938 108.164062 122.863281 102.511719 122.863281 95.5625 L 122.863281 50.636719 C 122.863281 43.6875 117.210938 38.035156 110.261719 38.035156 Z M 118.480469 95.5625 C 118.480469 100.09375 114.792969 103.78125 110.261719 103.78125 L 60.953125 103.78125 C 56.421875 103.78125 52.734375 100.09375 52.734375 95.5625 L 52.734375 59.949219 L 118.480469 59.949219 Z M 118.480469 55.566406 L 52.734375 55.566406 L 52.734375 50.636719 C 52.734375 46.105469 56.421875 42.417969 60.953125 42.417969 L 63.691406 42.417969 L 63.691406 46.800781 C 63.691406 48.011719 64.671875 48.992188 65.882812 48.992188 C 67.09375 48.992188 68.074219 48.011719 68.074219 46.800781 L 68.074219 42.417969 L 103.140625 42.417969 L 103.140625 46.800781 C 103.140625 48.011719 104.121094 48.992188 105.332031 48.992188 C 106.542969 48.992188 107.523438 48.011719 107.523438 46.800781 L 107.523438 42.417969 L 110.261719 42.417969 C 114.792969 42.417969 118.480469 46.105469 118.480469 50.636719 Z M 118.480469 55.566406 " />
  <path fill="#ffffff"
    d="M 77.175781 84.605469 L 75.9375 91.832031 C 75.628906 93.621094 77.511719 94.988281 79.117188 94.144531 L 85.609375 90.730469 L 92.097656 94.144531 C 93.707031 94.988281 95.585938 93.617188 95.277344 91.832031 L 94.039062 84.605469 L 99.292969 79.484375 C 100.589844 78.222656 99.871094 76.007812 98.078125 75.75 L 90.820312 74.695312 L 87.574219 68.117188 C 86.769531 66.492188 84.445312 66.492188 83.640625 68.117188 L 80.398438 74.695312 L 73.140625 75.75 C 71.34375 76.007812 70.625 78.21875 71.925781 79.484375 Z M 77.175781 84.605469 " />
  <g fill="#ffffff">
    <g transform="translate(58.883792, 130.246508)">
      <g>
        <path
          d="M 9.390625 -1.953125 L 9.390625 0 L 1.25 0 L 1.25 -10.515625 L 9.203125 -10.515625 L 9.203125 -8.5625 L 3.671875 -8.5625 L 3.671875 -6.28125 L 8.546875 -6.28125 L 8.546875 -4.390625 L 3.671875 -4.390625 L 3.671875 -1.953125 Z M 9.390625 -1.953125 " />
      </g>
    </g>
  </g>
  <g fill="#ffffff">
    <g transform="translate(68.965547, 130.246508)">
      <g>
        <path
          d="M 9.109375 -8.09375 L 5.703125 0 L 3.28125 0 L -0.125 -8.09375 L 2.296875 -8.09375 L 4.546875 -2.578125 L 6.859375 -8.09375 Z M 9.109375 -8.09375 " />
      </g>
    </g>
  </g>
  <g fill="#ffffff">
    <g transform="translate(77.950478, 130.246508)">
      <g>
        <path
          d="M 9 -4.015625 C 9 -3.984375 8.984375 -3.769531 8.953125 -3.375 L 2.84375 -3.375 C 2.945312 -2.875 3.203125 -2.476562 3.609375 -2.1875 C 4.023438 -1.90625 4.539062 -1.765625 5.15625 -1.765625 C 5.570312 -1.765625 5.941406 -1.828125 6.265625 -1.953125 C 6.597656 -2.078125 6.90625 -2.273438 7.1875 -2.546875 L 8.4375 -1.1875 C 7.675781 -0.3125 6.5625 0.125 5.09375 0.125 C 4.1875 0.125 3.378906 -0.0507812 2.671875 -0.40625 C 1.972656 -0.769531 1.429688 -1.265625 1.046875 -1.890625 C 0.671875 -2.523438 0.484375 -3.242188 0.484375 -4.046875 C 0.484375 -4.835938 0.671875 -5.550781 1.046875 -6.1875 C 1.421875 -6.820312 1.9375 -7.316406 2.59375 -7.671875 C 3.25 -8.023438 3.984375 -8.203125 4.796875 -8.203125 C 5.585938 -8.203125 6.300781 -8.03125 6.9375 -7.6875 C 7.582031 -7.351562 8.085938 -6.867188 8.453125 -6.234375 C 8.816406 -5.597656 9 -4.859375 9 -4.015625 Z M 4.8125 -6.4375 C 4.28125 -6.4375 3.832031 -6.285156 3.46875 -5.984375 C 3.113281 -5.679688 2.894531 -5.269531 2.8125 -4.75 L 6.796875 -4.75 C 6.710938 -5.257812 6.488281 -5.664062 6.125 -5.96875 C 5.769531 -6.28125 5.332031 -6.4375 4.8125 -6.4375 Z M 4.8125 -6.4375 " />
      </g>
    </g>
  </g>
  <g fill="#ffffff">
    <g transform="translate(87.431231, 130.246508)">
      <g>
        <path
          d="M 6 -8.203125 C 7 -8.203125 7.804688 -7.898438 8.421875 -7.296875 C 9.035156 -6.703125 9.34375 -5.8125 9.34375 -4.625 L 9.34375 0 L 7 0 L 7 -4.265625 C 7 -4.910156 6.859375 -5.390625 6.578125 -5.703125 C 6.296875 -6.015625 5.890625 -6.171875 5.359375 -6.171875 C 4.773438 -6.171875 4.304688 -5.988281 3.953125 -5.625 C 3.597656 -5.257812 3.421875 -4.71875 3.421875 -4 L 3.421875 0 L 1.078125 0 L 1.078125 -8.09375 L 3.328125 -8.09375 L 3.328125 -7.140625 C 3.628906 -7.484375 4.007812 -7.742188 4.46875 -7.921875 C 4.9375 -8.109375 5.445312 -8.203125 6 -8.203125 Z M 6 -8.203125 " />
      </g>
    </g>
  </g>
  <g fill="#ffffff">
    <g transform="translate(97.813483, 130.246508)">
      <g>
        <path
          d="M 6.296875 -0.390625 C 6.066406 -0.222656 5.78125 -0.09375 5.4375 0 C 5.101562 0.0820312 4.753906 0.125 4.390625 0.125 C 3.429688 0.125 2.6875 -0.117188 2.15625 -0.609375 C 1.632812 -1.109375 1.375 -1.832031 1.375 -2.78125 L 1.375 -6.109375 L 0.125 -6.109375 L 0.125 -7.90625 L 1.375 -7.90625 L 1.375 -9.875 L 3.71875 -9.875 L 3.71875 -7.90625 L 5.734375 -7.90625 L 5.734375 -6.109375 L 3.71875 -6.109375 L 3.71875 -2.8125 C 3.71875 -2.46875 3.800781 -2.203125 3.96875 -2.015625 C 4.144531 -1.835938 4.394531 -1.75 4.71875 -1.75 C 5.09375 -1.75 5.410156 -1.847656 5.671875 -2.046875 Z M 6.296875 -0.390625 " />
      </g>
    </g>
  </g>
  <g fill="#ffffff">
    <g transform="translate(104.349342, 130.246508)">
      <g>
        <path
          d="M 3.796875 0.125 C 3.128906 0.125 2.472656 0.0390625 1.828125 -0.125 C 1.191406 -0.289062 0.679688 -0.5 0.296875 -0.75 L 1.078125 -2.4375 C 1.441406 -2.207031 1.878906 -2.019531 2.390625 -1.875 C 2.898438 -1.726562 3.398438 -1.65625 3.890625 -1.65625 C 4.878906 -1.65625 5.375 -1.898438 5.375 -2.390625 C 5.375 -2.617188 5.238281 -2.78125 4.96875 -2.875 C 4.695312 -2.976562 4.285156 -3.066406 3.734375 -3.140625 C 3.066406 -3.242188 2.515625 -3.359375 2.078125 -3.484375 C 1.648438 -3.617188 1.28125 -3.847656 0.96875 -4.171875 C 0.65625 -4.503906 0.5 -4.976562 0.5 -5.59375 C 0.5 -6.101562 0.644531 -6.554688 0.9375 -6.953125 C 1.238281 -7.347656 1.671875 -7.65625 2.234375 -7.875 C 2.796875 -8.09375 3.460938 -8.203125 4.234375 -8.203125 C 4.804688 -8.203125 5.375 -8.140625 5.9375 -8.015625 C 6.507812 -7.890625 6.976562 -7.71875 7.34375 -7.5 L 6.5625 -5.828125 C 5.851562 -6.234375 5.078125 -6.4375 4.234375 -6.4375 C 3.734375 -6.4375 3.359375 -6.363281 3.109375 -6.21875 C 2.859375 -6.082031 2.734375 -5.90625 2.734375 -5.6875 C 2.734375 -5.4375 2.867188 -5.257812 3.140625 -5.15625 C 3.410156 -5.050781 3.84375 -4.957031 4.4375 -4.875 C 5.09375 -4.757812 5.628906 -4.640625 6.046875 -4.515625 C 6.472656 -4.390625 6.84375 -4.160156 7.15625 -3.828125 C 7.46875 -3.503906 7.625 -3.046875 7.625 -2.453125 C 7.625 -1.953125 7.472656 -1.503906 7.171875 -1.109375 C 6.867188 -0.722656 6.425781 -0.421875 5.84375 -0.203125 C 5.269531 0.015625 4.585938 0.125 3.796875 0.125 Z M 3.796875 0.125 " />
      </g>
    </g>
  </g>
</svg>