<svg xmlns="http://www.w3.org/2000/svg" xmlns:xlink="http://www.w3.org/1999/xlink" width="229" zoomAndPan="magnify" viewBox="0 0 171.75 142.499996" height="190" preserveAspectRatio="xMidYMid meet" version="1.0"><defs><g/><clipPath id="8a8fe395b1"><path d="M 0.175781 0 L 171.324219 0 L 171.324219 142 L 0.175781 142 Z M 0.175781 0 " clip-rule="nonzero"/></clipPath><clipPath id="ba53af1507"><path d="M 0.175781 0 L 170.578125 0 L 170.578125 41 L 0.175781 41 Z M 0.175781 0 " clip-rule="nonzero"/></clipPath><clipPath id="b61402055f"><path d="M 0.175781 23.664062 L 170.578125 23.664062 L 170.578125 141.253906 L 0.175781 141.253906 Z M 0.175781 23.664062 " clip-rule="nonzero"/></clipPath><clipPath id="8db7d14aa5"><path d="M 38.921875 62 L 75 62 L 75 96 L 38.921875 96 Z M 38.921875 62 " clip-rule="nonzero"/></clipPath></defs><g clip-path="url(#8a8fe395b1)"><path fill="#ffffff" d="M 0.175781 0 L 171.324219 0 L 171.324219 142 L 0.175781 142 Z M 0.175781 0 " fill-opacity="1" fill-rule="nonzero"/></g><g clip-path="url(#ba53af1507)"><path fill="#0097b2" d="M 0.175781 40.222656 L 0.175781 15.347656 C 0.175781 6.871094 7.046875 0 15.523438 0 L 48.496094 0 C 51.742188 0 54.910156 1.03125 57.535156 2.945312 L 71.890625 13.410156 L 155.382812 13.410156 C 163.855469 13.410156 170.730469 20.28125 170.730469 28.753906 L 170.730469 40.222656 L 0.175781 40.222656 " fill-opacity="1" fill-rule="nonzero"/></g><g clip-path="url(#b61402055f)"><path fill="#458099" d="M 155.382812 23.699219 L 15.523438 23.699219 C 7.046875 23.699219 0.175781 30.570312 0.175781 39.042969 L 0.175781 126.210938 C 0.175781 134.683594 7.046875 141.554688 15.523438 141.554688 L 155.382812 141.554688 C 163.855469 141.554688 170.730469 134.683594 170.730469 126.210938 L 170.730469 39.042969 C 170.730469 30.570312 163.855469 23.699219 155.382812 23.699219 " fill-opacity="1" fill-rule="nonzero"/></g><path fill="#ffffff" d="M 90.289062 71.941406 L 80.609375 71.941406 C 73.054688 71.941406 66.929688 78.066406 66.929688 85.621094 L 66.929688 101.199219 C 78.878906 105.554688 92 105.554688 103.949219 101.199219 L 103.949219 85.621094 C 103.96875 78.066406 97.847656 71.941406 90.289062 71.941406 Z M 90.289062 71.941406 " fill-opacity="1" fill-rule="nonzero"/><path fill="#ffffff" d="M 96.671875 56.234375 C 96.671875 56.972656 96.601562 57.699219 96.457031 58.421875 C 96.3125 59.144531 96.101562 59.847656 95.820312 60.527344 C 95.539062 61.210938 95.191406 61.855469 94.78125 62.46875 C 94.371094 63.082031 93.90625 63.648438 93.386719 64.171875 C 92.867188 64.691406 92.296875 65.15625 91.6875 65.566406 C 91.074219 65.976562 90.425781 66.320312 89.746094 66.601562 C 89.066406 66.886719 88.363281 67.097656 87.640625 67.242188 C 86.917969 67.386719 86.1875 67.457031 85.449219 67.457031 C 84.714844 67.457031 83.984375 67.386719 83.261719 67.242188 C 82.539062 67.097656 81.835938 66.886719 81.15625 66.601562 C 80.476562 66.320312 79.828125 65.976562 79.214844 65.566406 C 78.601562 65.15625 78.035156 64.691406 77.515625 64.171875 C 76.992188 63.648438 76.527344 63.082031 76.117188 62.46875 C 75.710938 61.855469 75.363281 61.210938 75.082031 60.527344 C 74.800781 59.847656 74.585938 59.144531 74.441406 58.421875 C 74.300781 57.699219 74.226562 56.972656 74.226562 56.234375 C 74.226562 55.496094 74.300781 54.765625 74.441406 54.042969 C 74.585938 53.320312 74.800781 52.621094 75.082031 51.9375 C 75.363281 51.257812 75.710938 50.613281 76.117188 50 C 76.527344 49.386719 76.992188 48.820312 77.515625 48.296875 C 78.035156 47.777344 78.601562 47.3125 79.214844 46.902344 C 79.828125 46.492188 80.476562 46.148438 81.15625 45.867188 C 81.835938 45.582031 82.539062 45.371094 83.261719 45.226562 C 83.984375 45.082031 84.714844 45.011719 85.449219 45.011719 C 86.1875 45.011719 86.917969 45.082031 87.640625 45.226562 C 88.363281 45.371094 89.066406 45.582031 89.746094 45.867188 C 90.425781 46.148438 91.074219 46.492188 91.6875 46.902344 C 92.296875 47.3125 92.867188 47.777344 93.386719 48.296875 C 93.90625 48.820312 94.371094 49.386719 94.78125 50 C 95.191406 50.613281 95.539062 51.257812 95.820312 51.9375 C 96.101562 52.621094 96.3125 53.320312 96.457031 54.042969 C 96.601562 54.765625 96.671875 55.496094 96.671875 56.234375 Z M 96.671875 56.234375 " fill-opacity="1" fill-rule="nonzero"/><path fill="#ffffff" d="M 118.300781 62.933594 L 108.621094 62.933594 C 103.300781 62.933594 98.683594 65.988281 96.429688 70.433594 C 102.425781 72.875 106.667969 78.753906 106.667969 85.605469 L 106.667969 95.023438 C 115.15625 96.101562 123.847656 95.152344 131.980469 92.191406 L 131.980469 76.613281 C 131.980469 69.058594 125.855469 62.933594 118.300781 62.933594 Z M 118.300781 62.933594 " fill-opacity="1" fill-rule="nonzero"/><path fill="#ffffff" d="M 124.683594 47.226562 C 124.683594 47.960938 124.613281 48.691406 124.46875 49.414062 C 124.324219 50.136719 124.113281 50.839844 123.832031 51.519531 C 123.546875 52.203125 123.203125 52.847656 122.792969 53.460938 C 122.382812 54.074219 121.917969 54.640625 121.398438 55.160156 C 120.875 55.683594 120.308594 56.148438 119.695312 56.558594 C 119.085938 56.96875 118.4375 57.3125 117.757812 57.59375 C 117.074219 57.875 116.375 58.089844 115.652344 58.234375 C 114.929688 58.378906 114.199219 58.449219 113.460938 58.449219 C 112.726562 58.449219 111.996094 58.378906 111.273438 58.234375 C 110.550781 58.089844 109.847656 57.875 109.167969 57.59375 C 108.484375 57.3125 107.839844 56.96875 107.226562 56.558594 C 106.613281 56.148438 106.046875 55.683594 105.527344 55.160156 C 105.003906 54.640625 104.539062 54.074219 104.128906 53.460938 C 103.71875 52.847656 103.375 52.203125 103.09375 51.519531 C 102.8125 50.839844 102.597656 50.136719 102.453125 49.414062 C 102.308594 48.691406 102.238281 47.960938 102.238281 47.226562 C 102.238281 46.488281 102.308594 45.757812 102.453125 45.035156 C 102.597656 44.3125 102.8125 43.613281 103.09375 42.929688 C 103.375 42.25 103.71875 41.601562 104.128906 40.992188 C 104.539062 40.378906 105.003906 39.8125 105.527344 39.289062 C 106.046875 38.769531 106.613281 38.304688 107.226562 37.894531 C 107.839844 37.484375 108.484375 37.140625 109.167969 36.855469 C 109.847656 36.574219 110.550781 36.363281 111.273438 36.21875 C 111.996094 36.074219 112.726562 36.003906 113.460938 36.003906 C 114.199219 36.003906 114.929688 36.074219 115.652344 36.21875 C 116.375 36.363281 117.074219 36.574219 117.757812 36.855469 C 118.4375 37.140625 119.085938 37.484375 119.695312 37.894531 C 120.308594 38.304688 120.875 38.769531 121.398438 39.289062 C 121.917969 39.8125 122.382812 40.378906 122.792969 40.992188 C 123.203125 41.601562 123.546875 42.25 123.832031 42.929688 C 124.113281 43.613281 124.324219 44.3125 124.46875 45.035156 C 124.613281 45.757812 124.683594 46.488281 124.683594 47.226562 Z M 124.683594 47.226562 " fill-opacity="1" fill-rule="nonzero"/><g clip-path="url(#8db7d14aa5)"><path fill="#ffffff" d="M 74.46875 70.453125 C 72.21875 66.003906 67.601562 62.953125 62.277344 62.953125 L 52.601562 62.953125 C 45.042969 62.933594 38.921875 69.058594 38.921875 76.613281 L 38.921875 92.191406 C 47.074219 95.171875 55.746094 96.101562 64.234375 95.023438 L 64.234375 85.605469 C 64.234375 78.753906 68.476562 72.875 74.46875 70.453125 Z M 74.46875 70.453125 " fill-opacity="1" fill-rule="nonzero"/></g><path fill="#ffffff" d="M 68.664062 47.226562 C 68.664062 47.960938 68.589844 48.691406 68.445312 49.414062 C 68.304688 50.136719 68.089844 50.839844 67.808594 51.519531 C 67.527344 52.203125 67.179688 52.847656 66.769531 53.460938 C 66.363281 54.074219 65.894531 54.640625 65.375 55.160156 C 64.855469 55.683594 64.289062 56.148438 63.675781 56.558594 C 63.0625 56.96875 62.414062 57.3125 61.734375 57.59375 C 61.054688 57.875 60.351562 58.089844 59.628906 58.234375 C 58.90625 58.378906 58.175781 58.449219 57.4375 58.449219 C 56.703125 58.449219 55.972656 58.378906 55.25 58.234375 C 54.527344 58.089844 53.824219 57.875 53.144531 57.59375 C 52.464844 57.3125 51.816406 56.96875 51.203125 56.558594 C 50.589844 56.148438 50.023438 55.683594 49.503906 55.160156 C 48.980469 54.640625 48.515625 54.074219 48.109375 53.460938 C 47.699219 52.847656 47.351562 52.203125 47.070312 51.519531 C 46.789062 50.839844 46.574219 50.136719 46.433594 49.414062 C 46.289062 48.691406 46.214844 47.960938 46.214844 47.226562 C 46.214844 46.488281 46.289062 45.757812 46.433594 45.035156 C 46.574219 44.3125 46.789062 43.613281 47.070312 42.929688 C 47.351562 42.25 47.699219 41.601562 48.109375 40.992188 C 48.515625 40.378906 48.980469 39.8125 49.503906 39.289062 C 50.023438 38.769531 50.589844 38.304688 51.203125 37.894531 C 51.816406 37.484375 52.464844 37.140625 53.144531 36.855469 C 53.824219 36.574219 54.527344 36.363281 55.25 36.21875 C 55.972656 36.074219 56.703125 36.003906 57.4375 36.003906 C 58.175781 36.003906 58.90625 36.074219 59.628906 36.21875 C 60.351562 36.363281 61.054688 36.574219 61.734375 36.855469 C 62.414062 37.140625 63.0625 37.484375 63.675781 37.894531 C 64.289062 38.304688 64.855469 38.769531 65.375 39.289062 C 65.894531 39.8125 66.363281 40.378906 66.769531 40.992188 C 67.179688 41.601562 67.527344 42.25 67.808594 42.929688 C 68.089844 43.613281 68.304688 44.3125 68.445312 45.035156 C 68.589844 45.757812 68.664062 46.488281 68.664062 47.226562 Z M 68.664062 47.226562 " fill-opacity="1" fill-rule="nonzero"/><g fill="#ffffff" fill-opacity="1"><g transform="translate(58.906218, 128.14238)"><g><path d="M 5.640625 -10.21875 C 6.546875 -10.21875 7.332031 -10.066406 8 -9.765625 C 8.664062 -9.472656 9.175781 -9.046875 9.53125 -8.484375 C 9.894531 -7.929688 10.078125 -7.273438 10.078125 -6.515625 C 10.078125 -5.765625 9.894531 -5.109375 9.53125 -4.546875 C 9.175781 -3.984375 8.664062 -3.550781 8 -3.25 C 7.332031 -2.957031 6.546875 -2.8125 5.640625 -2.8125 L 3.578125 -2.8125 L 3.578125 0 L 1.21875 0 L 1.21875 -10.21875 Z M 5.5 -4.75 C 6.21875 -4.75 6.757812 -4.898438 7.125 -5.203125 C 7.5 -5.515625 7.6875 -5.953125 7.6875 -6.515625 C 7.6875 -7.085938 7.5 -7.523438 7.125 -7.828125 C 6.757812 -8.140625 6.21875 -8.296875 5.5 -8.296875 L 3.578125 -8.296875 L 3.578125 -4.75 Z M 5.5 -4.75 "/></g></g></g><g fill="#ffffff" fill-opacity="1"><g transform="translate(69.602936, 128.14238)"><g><path d="M 8.75 -3.90625 C 8.75 -3.875 8.734375 -3.664062 8.703125 -3.28125 L 2.765625 -3.28125 C 2.867188 -2.800781 3.117188 -2.414062 3.515625 -2.125 C 3.921875 -1.84375 4.421875 -1.703125 5.015625 -1.703125 C 5.421875 -1.703125 5.78125 -1.765625 6.09375 -1.890625 C 6.414062 -2.015625 6.710938 -2.207031 6.984375 -2.46875 L 8.203125 -1.15625 C 7.453125 -0.3125 6.367188 0.109375 4.953125 0.109375 C 4.066406 0.109375 3.28125 -0.0625 2.59375 -0.40625 C 1.914062 -0.75 1.390625 -1.226562 1.015625 -1.84375 C 0.648438 -2.457031 0.46875 -3.15625 0.46875 -3.9375 C 0.46875 -4.695312 0.648438 -5.382812 1.015625 -6 C 1.378906 -6.625 1.878906 -7.109375 2.515625 -7.453125 C 3.160156 -7.804688 3.875 -7.984375 4.65625 -7.984375 C 5.425781 -7.984375 6.125 -7.816406 6.75 -7.484375 C 7.375 -7.148438 7.863281 -6.671875 8.21875 -6.046875 C 8.570312 -5.429688 8.75 -4.71875 8.75 -3.90625 Z M 4.671875 -6.25 C 4.160156 -6.25 3.726562 -6.101562 3.375 -5.8125 C 3.019531 -5.519531 2.804688 -5.117188 2.734375 -4.609375 L 6.609375 -4.609375 C 6.523438 -5.109375 6.304688 -5.503906 5.953125 -5.796875 C 5.609375 -6.097656 5.179688 -6.25 4.671875 -6.25 Z M 4.671875 -6.25 "/></g></g></g><g fill="#ffffff" fill-opacity="1"><g transform="translate(78.823737, 128.14238)"><g><path d="M 4.796875 0.109375 C 3.960938 0.109375 3.21875 -0.0625 2.5625 -0.40625 C 1.90625 -0.75 1.390625 -1.226562 1.015625 -1.84375 C 0.648438 -2.457031 0.46875 -3.15625 0.46875 -3.9375 C 0.46875 -4.707031 0.648438 -5.398438 1.015625 -6.015625 C 1.390625 -6.628906 1.90625 -7.109375 2.5625 -7.453125 C 3.21875 -7.804688 3.960938 -7.984375 4.796875 -7.984375 C 5.617188 -7.984375 6.351562 -7.804688 7 -7.453125 C 7.65625 -7.109375 8.171875 -6.628906 8.546875 -6.015625 C 8.921875 -5.398438 9.109375 -4.707031 9.109375 -3.9375 C 9.109375 -3.15625 8.921875 -2.457031 8.546875 -1.84375 C 8.171875 -1.226562 7.65625 -0.75 7 -0.40625 C 6.351562 -0.0625 5.617188 0.109375 4.796875 0.109375 Z M 4.796875 -1.75 C 5.378906 -1.75 5.859375 -1.945312 6.234375 -2.34375 C 6.609375 -2.738281 6.796875 -3.269531 6.796875 -3.9375 C 6.796875 -4.59375 6.609375 -5.117188 6.234375 -5.515625 C 5.859375 -5.910156 5.378906 -6.109375 4.796875 -6.109375 C 4.210938 -6.109375 3.726562 -5.910156 3.34375 -5.515625 C 2.96875 -5.117188 2.78125 -4.59375 2.78125 -3.9375 C 2.78125 -3.269531 2.96875 -2.738281 3.34375 -2.34375 C 3.726562 -1.945312 4.210938 -1.75 4.796875 -1.75 Z M 4.796875 -1.75 "/></g></g></g><g fill="#ffffff" fill-opacity="1"><g transform="translate(88.395251, 128.14238)"><g><path d="M 5.703125 -7.984375 C 6.429688 -7.984375 7.09375 -7.8125 7.6875 -7.46875 C 8.289062 -7.132812 8.757812 -6.660156 9.09375 -6.046875 C 9.4375 -5.441406 9.609375 -4.738281 9.609375 -3.9375 C 9.609375 -3.125 9.4375 -2.410156 9.09375 -1.796875 C 8.757812 -1.191406 8.289062 -0.722656 7.6875 -0.390625 C 7.09375 -0.0546875 6.429688 0.109375 5.703125 0.109375 C 4.691406 0.109375 3.898438 -0.203125 3.328125 -0.828125 L 3.328125 2.828125 L 1.046875 2.828125 L 1.046875 -7.859375 L 3.234375 -7.859375 L 3.234375 -6.953125 C 3.796875 -7.640625 4.617188 -7.984375 5.703125 -7.984375 Z M 5.296875 -1.75 C 5.890625 -1.75 6.367188 -1.945312 6.734375 -2.34375 C 7.109375 -2.738281 7.296875 -3.269531 7.296875 -3.9375 C 7.296875 -4.59375 7.109375 -5.117188 6.734375 -5.515625 C 6.367188 -5.910156 5.890625 -6.109375 5.296875 -6.109375 C 4.710938 -6.109375 4.234375 -5.910156 3.859375 -5.515625 C 3.484375 -5.117188 3.296875 -4.59375 3.296875 -3.9375 C 3.296875 -3.269531 3.484375 -2.738281 3.859375 -2.34375 C 4.234375 -1.945312 4.710938 -1.75 5.296875 -1.75 Z M 5.296875 -1.75 "/></g></g></g><g fill="#ffffff" fill-opacity="1"><g transform="translate(98.478222, 128.14238)"><g><path d="M 1.046875 -10.84375 L 3.328125 -10.84375 L 3.328125 0 L 1.046875 0 Z M 1.046875 -10.84375 "/></g></g></g><g fill="#ffffff" fill-opacity="1"><g transform="translate(102.876735, 128.14238)"><g><path d="M 8.75 -3.90625 C 8.75 -3.875 8.734375 -3.664062 8.703125 -3.28125 L 2.765625 -3.28125 C 2.867188 -2.800781 3.117188 -2.414062 3.515625 -2.125 C 3.921875 -1.84375 4.421875 -1.703125 5.015625 -1.703125 C 5.421875 -1.703125 5.78125 -1.765625 6.09375 -1.890625 C 6.414062 -2.015625 6.710938 -2.207031 6.984375 -2.46875 L 8.203125 -1.15625 C 7.453125 -0.3125 6.367188 0.109375 4.953125 0.109375 C 4.066406 0.109375 3.28125 -0.0625 2.59375 -0.40625 C 1.914062 -0.75 1.390625 -1.226562 1.015625 -1.84375 C 0.648438 -2.457031 0.46875 -3.15625 0.46875 -3.9375 C 0.46875 -4.695312 0.648438 -5.382812 1.015625 -6 C 1.378906 -6.625 1.878906 -7.109375 2.515625 -7.453125 C 3.160156 -7.804688 3.875 -7.984375 4.65625 -7.984375 C 5.425781 -7.984375 6.125 -7.816406 6.75 -7.484375 C 7.375 -7.148438 7.863281 -6.671875 8.21875 -6.046875 C 8.570312 -5.429688 8.75 -4.71875 8.75 -3.90625 Z M 4.671875 -6.25 C 4.160156 -6.25 3.726562 -6.101562 3.375 -5.8125 C 3.019531 -5.519531 2.804688 -5.117188 2.734375 -4.609375 L 6.609375 -4.609375 C 6.523438 -5.109375 6.304688 -5.503906 5.953125 -5.796875 C 5.609375 -6.097656 5.179688 -6.25 4.671875 -6.25 Z M 4.671875 -6.25 "/></g></g></g></svg>