<svg xmlns="http://www.w3.org/2000/svg" xmlns:xlink="http://www.w3.org/1999/xlink" width="229" zoomAndPan="magnify" viewBox="0 0 171.75 142.499996" height="190" preserveAspectRatio="xMidYMid meet" version="1.0"><defs><g/><clipPath id="32621dcfe0"><path d="M 0.175781 0 L 171.324219 0 L 171.324219 142 L 0.175781 142 Z M 0.175781 0 " clip-rule="nonzero"/></clipPath><clipPath id="92b6604880"><path d="M 0.175781 0 L 170.710938 0 L 170.710938 41 L 0.175781 41 Z M 0.175781 0 " clip-rule="nonzero"/></clipPath><clipPath id="827e8016f3"><path d="M 0.175781 23.664062 L 170.710938 23.664062 L 170.710938 141.558594 L 0.175781 141.558594 Z M 0.175781 23.664062 " clip-rule="nonzero"/></clipPath><clipPath id="d711a868fd"><path d="M 49.269531 31.449219 L 121.640625 31.449219 L 121.640625 110.136719 L 49.269531 110.136719 Z M 49.269531 31.449219 " clip-rule="nonzero"/></clipPath></defs><g clip-path="url(#32621dcfe0)"><path fill="#ffffff" d="M 0.175781 0 L 171.324219 0 L 171.324219 142 L 0.175781 142 Z M 0.175781 0 " fill-opacity="1" fill-rule="nonzero"/></g><g clip-path="url(#92b6604880)"><path fill="#0097b2" d="M 0.175781 40.222656 L 0.175781 15.347656 C 0.175781 6.871094 7.046875 0 15.523438 0 L 48.496094 0 C 51.746094 0 54.910156 1.03125 57.535156 2.945312 L 71.890625 13.410156 L 155.386719 13.410156 C 163.863281 13.410156 170.734375 20.28125 170.734375 28.757812 L 170.734375 40.222656 L 0.175781 40.222656 " fill-opacity="1" fill-rule="nonzero"/></g><g clip-path="url(#827e8016f3)"><path fill="#458099" d="M 155.386719 23.699219 L 15.523438 23.699219 C 7.046875 23.699219 0.175781 30.570312 0.175781 39.046875 L 0.175781 126.214844 C 0.175781 134.691406 7.046875 141.558594 15.523438 141.558594 L 155.386719 141.558594 C 163.863281 141.558594 170.734375 134.691406 170.734375 126.214844 L 170.734375 39.046875 C 170.734375 30.570312 163.863281 23.699219 155.386719 23.699219 " fill-opacity="1" fill-rule="nonzero"/></g><g clip-path="url(#d711a868fd)"><path fill="#ffffff" d="M 49.699219 89.40625 L 83.898438 109.152344 L 85.453125 110.050781 L 87.007812 109.148438 L 121.210938 89.402344 L 121.210938 52.089844 L 85.453125 31.449219 L 49.699219 52.09375 Z M 118.101562 87.613281 L 87.007812 105.5625 L 87.007812 73.636719 L 118.101562 55.679688 Z M 85.453125 35.039062 L 116.546875 52.988281 L 102.554688 61.070312 L 71.460938 43.117188 Z M 68.351562 44.914062 L 99.449219 62.863281 L 85.453125 70.941406 L 54.363281 52.992188 Z M 52.808594 55.683594 L 83.898438 73.636719 L 83.898438 105.5625 L 52.808594 87.613281 Z M 52.808594 55.683594 " fill-opacity="1" fill-rule="nonzero"/></g><g fill="#ffffff" fill-opacity="1"><g transform="translate(51.820792, 128.523456)"><g><path d="M 6.078125 -11.015625 C 7.046875 -11.015625 7.890625 -10.847656 8.609375 -10.515625 C 9.328125 -10.191406 9.878906 -9.734375 10.265625 -9.140625 C 10.660156 -8.546875 10.859375 -7.835938 10.859375 -7.015625 C 10.859375 -6.210938 10.660156 -5.507812 10.265625 -4.90625 C 9.878906 -4.300781 9.328125 -3.835938 8.609375 -3.515625 C 7.890625 -3.191406 7.046875 -3.03125 6.078125 -3.03125 L 3.859375 -3.03125 L 3.859375 0 L 1.3125 0 L 1.3125 -11.015625 Z M 5.9375 -5.109375 C 6.695312 -5.109375 7.273438 -5.273438 7.671875 -5.609375 C 8.078125 -5.941406 8.28125 -6.410156 8.28125 -7.015625 C 8.28125 -7.640625 8.078125 -8.113281 7.671875 -8.4375 C 7.273438 -8.769531 6.695312 -8.9375 5.9375 -8.9375 L 3.859375 -8.9375 L 3.859375 -5.109375 Z M 5.9375 -5.109375 "/></g></g></g><g fill="#ffffff" fill-opacity="1"><g transform="translate(63.334648, 128.523456)"><g><path d="M 3.484375 -7.34375 C 3.773438 -7.757812 4.164062 -8.070312 4.65625 -8.28125 C 5.15625 -8.488281 5.734375 -8.59375 6.390625 -8.59375 L 6.390625 -6.328125 C 6.117188 -6.347656 5.9375 -6.359375 5.84375 -6.359375 C 5.132812 -6.359375 4.582031 -6.160156 4.1875 -5.765625 C 3.789062 -5.367188 3.59375 -4.78125 3.59375 -4 L 3.59375 0 L 1.140625 0 L 1.140625 -8.46875 L 3.484375 -8.46875 Z M 3.484375 -7.34375 "/></g></g></g><g fill="#ffffff" fill-opacity="1"><g transform="translate(70.113982, 128.523456)"><g><path d="M 5.15625 0.125 C 4.269531 0.125 3.472656 -0.0546875 2.765625 -0.421875 C 2.054688 -0.796875 1.5 -1.3125 1.09375 -1.96875 C 0.695312 -2.632812 0.5 -3.390625 0.5 -4.234375 C 0.5 -5.066406 0.695312 -5.8125 1.09375 -6.46875 C 1.5 -7.132812 2.054688 -7.65625 2.765625 -8.03125 C 3.472656 -8.40625 4.269531 -8.59375 5.15625 -8.59375 C 6.050781 -8.59375 6.847656 -8.40625 7.546875 -8.03125 C 8.253906 -7.65625 8.804688 -7.132812 9.203125 -6.46875 C 9.597656 -5.8125 9.796875 -5.066406 9.796875 -4.234375 C 9.796875 -3.390625 9.597656 -2.632812 9.203125 -1.96875 C 8.804688 -1.3125 8.253906 -0.796875 7.546875 -0.421875 C 6.847656 -0.0546875 6.050781 0.125 5.15625 0.125 Z M 5.15625 -1.890625 C 5.789062 -1.890625 6.304688 -2.097656 6.703125 -2.515625 C 7.109375 -2.941406 7.3125 -3.515625 7.3125 -4.234375 C 7.3125 -4.941406 7.109375 -5.507812 6.703125 -5.9375 C 6.304688 -6.363281 5.789062 -6.578125 5.15625 -6.578125 C 4.53125 -6.578125 4.007812 -6.363281 3.59375 -5.9375 C 3.1875 -5.507812 2.984375 -4.941406 2.984375 -4.234375 C 2.984375 -3.515625 3.1875 -2.941406 3.59375 -2.515625 C 4.007812 -2.097656 4.53125 -1.890625 5.15625 -1.890625 Z M 5.15625 -1.890625 "/></g></g></g><g fill="#ffffff" fill-opacity="1"><g transform="translate(80.416679, 128.523456)"><g><path d="M 9.75 -11.671875 L 9.75 0 L 7.40625 0 L 7.40625 -0.96875 C 6.800781 -0.238281 5.921875 0.125 4.765625 0.125 C 3.972656 0.125 3.253906 -0.0507812 2.609375 -0.40625 C 1.960938 -0.757812 1.453125 -1.265625 1.078125 -1.921875 C 0.710938 -2.585938 0.53125 -3.359375 0.53125 -4.234375 C 0.53125 -5.097656 0.710938 -5.859375 1.078125 -6.515625 C 1.453125 -7.179688 1.960938 -7.691406 2.609375 -8.046875 C 3.253906 -8.410156 3.972656 -8.59375 4.765625 -8.59375 C 5.847656 -8.59375 6.691406 -8.25 7.296875 -7.5625 L 7.296875 -11.671875 Z M 5.1875 -1.890625 C 5.8125 -1.890625 6.328125 -2.097656 6.734375 -2.515625 C 7.140625 -2.941406 7.34375 -3.515625 7.34375 -4.234375 C 7.34375 -4.941406 7.140625 -5.507812 6.734375 -5.9375 C 6.328125 -6.363281 5.8125 -6.578125 5.1875 -6.578125 C 4.5625 -6.578125 4.039062 -6.363281 3.625 -5.9375 C 3.21875 -5.507812 3.015625 -4.941406 3.015625 -4.234375 C 3.015625 -3.515625 3.21875 -2.941406 3.625 -2.515625 C 4.039062 -2.097656 4.5625 -1.890625 5.1875 -1.890625 Z M 5.1875 -1.890625 "/></g></g></g><g fill="#ffffff" fill-opacity="1"><g transform="translate(91.30136, 128.523456)"><g><path d="M 9.65625 -8.46875 L 9.65625 0 L 7.328125 0 L 7.328125 -1 C 7.003906 -0.632812 6.613281 -0.351562 6.15625 -0.15625 C 5.707031 0.03125 5.222656 0.125 4.703125 0.125 C 3.585938 0.125 2.703125 -0.191406 2.046875 -0.828125 C 1.398438 -1.472656 1.078125 -2.425781 1.078125 -3.6875 L 1.078125 -8.46875 L 3.546875 -8.46875 L 3.546875 -4.046875 C 3.546875 -2.679688 4.113281 -2 5.25 -2 C 5.84375 -2 6.316406 -2.1875 6.671875 -2.5625 C 7.023438 -2.945312 7.203125 -3.519531 7.203125 -4.28125 L 7.203125 -8.46875 Z M 9.65625 -8.46875 "/></g></g></g><g fill="#ffffff" fill-opacity="1"><g transform="translate(102.107397, 128.523456)"><g><path d="M 5.21875 0.125 C 4.320312 0.125 3.515625 -0.0546875 2.796875 -0.421875 C 2.078125 -0.796875 1.515625 -1.3125 1.109375 -1.96875 C 0.703125 -2.632812 0.5 -3.390625 0.5 -4.234375 C 0.5 -5.066406 0.703125 -5.8125 1.109375 -6.46875 C 1.515625 -7.132812 2.078125 -7.65625 2.796875 -8.03125 C 3.515625 -8.40625 4.320312 -8.59375 5.21875 -8.59375 C 6.113281 -8.59375 6.894531 -8.40625 7.5625 -8.03125 C 8.226562 -7.65625 8.710938 -7.125 9.015625 -6.4375 L 7.109375 -5.40625 C 6.671875 -6.1875 6.035156 -6.578125 5.203125 -6.578125 C 4.566406 -6.578125 4.035156 -6.363281 3.609375 -5.9375 C 3.191406 -5.519531 2.984375 -4.953125 2.984375 -4.234375 C 2.984375 -3.503906 3.191406 -2.929688 3.609375 -2.515625 C 4.035156 -2.097656 4.566406 -1.890625 5.203125 -1.890625 C 6.046875 -1.890625 6.679688 -2.273438 7.109375 -3.046875 L 9.015625 -2.015625 C 8.710938 -1.335938 8.226562 -0.8125 7.5625 -0.4375 C 6.894531 -0.0625 6.113281 0.125 5.21875 0.125 Z M 5.21875 0.125 "/></g></g></g><g fill="#ffffff" fill-opacity="1"><g transform="translate(111.403418, 128.523456)"><g><path d="M 6.59375 -0.40625 C 6.351562 -0.226562 6.054688 -0.09375 5.703125 0 C 5.347656 0.0820312 4.976562 0.125 4.59375 0.125 C 3.582031 0.125 2.800781 -0.128906 2.25 -0.640625 C 1.707031 -1.160156 1.4375 -1.914062 1.4375 -2.90625 L 1.4375 -6.390625 L 0.125 -6.390625 L 0.125 -8.28125 L 1.4375 -8.28125 L 1.4375 -10.34375 L 3.890625 -10.34375 L 3.890625 -8.28125 L 6 -8.28125 L 6 -6.390625 L 3.890625 -6.390625 L 3.890625 -2.9375 C 3.890625 -2.582031 3.976562 -2.304688 4.15625 -2.109375 C 4.34375 -1.921875 4.601562 -1.828125 4.9375 -1.828125 C 5.320312 -1.828125 5.65625 -1.929688 5.9375 -2.140625 Z M 6.59375 -0.40625 "/></g></g></g><g fill="#ffffff" fill-opacity="1"><g transform="translate(118.245665, 128.523456)"><g><path d="M 3.984375 0.125 C 3.273438 0.125 2.582031 0.0390625 1.90625 -0.125 C 1.238281 -0.300781 0.707031 -0.519531 0.3125 -0.78125 L 1.140625 -2.546875 C 1.515625 -2.304688 1.96875 -2.109375 2.5 -1.953125 C 3.03125 -1.804688 3.554688 -1.734375 4.078125 -1.734375 C 5.117188 -1.734375 5.640625 -1.988281 5.640625 -2.5 C 5.640625 -2.738281 5.492188 -2.910156 5.203125 -3.015625 C 4.921875 -3.117188 4.488281 -3.207031 3.90625 -3.28125 C 3.207031 -3.394531 2.632812 -3.519531 2.1875 -3.65625 C 1.738281 -3.789062 1.347656 -4.03125 1.015625 -4.375 C 0.679688 -4.71875 0.515625 -5.210938 0.515625 -5.859375 C 0.515625 -6.390625 0.671875 -6.863281 0.984375 -7.28125 C 1.296875 -7.695312 1.742188 -8.019531 2.328125 -8.25 C 2.921875 -8.476562 3.625 -8.59375 4.4375 -8.59375 C 5.03125 -8.59375 5.625 -8.523438 6.21875 -8.390625 C 6.8125 -8.265625 7.300781 -8.082031 7.6875 -7.84375 L 6.875 -6.109375 C 6.132812 -6.523438 5.320312 -6.734375 4.4375 -6.734375 C 3.914062 -6.734375 3.519531 -6.660156 3.25 -6.515625 C 2.988281 -6.367188 2.859375 -6.179688 2.859375 -5.953125 C 2.859375 -5.679688 3 -5.492188 3.28125 -5.390625 C 3.570312 -5.285156 4.023438 -5.1875 4.640625 -5.09375 C 5.335938 -4.976562 5.90625 -4.851562 6.34375 -4.71875 C 6.78125 -4.59375 7.160156 -4.359375 7.484375 -4.015625 C 7.816406 -3.671875 7.984375 -3.1875 7.984375 -2.5625 C 7.984375 -2.039062 7.820312 -1.570312 7.5 -1.15625 C 7.1875 -0.75 6.726562 -0.429688 6.125 -0.203125 C 5.519531 0.015625 4.804688 0.125 3.984375 0.125 Z M 3.984375 0.125 "/></g></g></g></svg>