<svg xmlns="http://www.w3.org/2000/svg" xmlns:xlink="http://www.w3.org/1999/xlink" width="229" zoomAndPan="magnify" viewBox="0 0 171.75 142.499996" height="190" preserveAspectRatio="xMidYMid meet" version="1.0"><defs><g/><clipPath id="6136e65061"><path d="M 0.175781 0 L 171.324219 0 L 171.324219 142 L 0.175781 142 Z M 0.175781 0 " clip-rule="nonzero"/></clipPath><clipPath id="ed7d399a2a"><path d="M 0.175781 0 L 170.742188 0 L 170.742188 41 L 0.175781 41 Z M 0.175781 0 " clip-rule="nonzero"/></clipPath><clipPath id="88ba69d5ab"><path d="M 0.175781 23.664062 L 170.734375 23.664062 L 170.734375 141.558594 L 0.175781 141.558594 Z M 0.175781 23.664062 " clip-rule="nonzero"/></clipPath><clipPath id="49fdc76c7c"><path d="M 49.5625 36.101562 L 113 36.101562 L 113 86 L 49.5625 86 Z M 49.5625 36.101562 " clip-rule="nonzero"/></clipPath><clipPath id="17e55513c8"><path d="M 73 71 L 121.347656 71 L 121.347656 105.515625 L 73 105.515625 Z M 73 71 " clip-rule="nonzero"/></clipPath></defs><g clip-path="url(#6136e65061)"><path fill="#ffffff" d="M 0.175781 0 L 171.324219 0 L 171.324219 142 L 0.175781 142 Z M 0.175781 0 " fill-opacity="1" fill-rule="nonzero"/></g><g clip-path="url(#ed7d399a2a)"><path fill="#0097b2" d="M 0.175781 40.222656 L 0.175781 15.347656 C 0.175781 6.871094 7.046875 0 15.523438 0 L 48.496094 0 C 51.746094 0 54.910156 1.03125 57.535156 2.945312 L 71.890625 13.410156 L 155.386719 13.410156 C 163.859375 13.410156 170.734375 20.28125 170.734375 28.757812 L 170.734375 40.222656 L 0.175781 40.222656 " fill-opacity="1" fill-rule="nonzero"/></g><g clip-path="url(#88ba69d5ab)"><path fill="#458099" d="M 155.386719 23.699219 L 15.523438 23.699219 C 7.046875 23.699219 0.175781 30.570312 0.175781 39.046875 L 0.175781 126.210938 C 0.175781 134.6875 7.046875 141.558594 15.523438 141.558594 L 155.386719 141.558594 C 163.859375 141.558594 170.734375 134.6875 170.734375 126.210938 L 170.734375 39.046875 C 170.734375 30.570312 163.859375 23.699219 155.386719 23.699219 " fill-opacity="1" fill-rule="nonzero"/></g><g clip-path="url(#49fdc76c7c)"><path fill="#ffffff" d="M 50.816406 85.371094 L 75.453125 85.371094 C 75.617188 85.371094 75.773438 85.339844 75.921875 85.277344 C 76.070312 85.214844 76.203125 85.125 76.320312 85.011719 C 76.433594 84.898438 76.523438 84.765625 76.582031 84.613281 C 76.644531 84.464844 76.675781 84.308594 76.675781 84.148438 C 76.675781 83.984375 76.644531 83.828125 76.582031 83.679688 C 76.523438 83.527344 76.433594 83.398438 76.320312 83.28125 C 76.203125 83.167969 76.070312 83.078125 75.921875 83.015625 C 75.773438 82.957031 75.617188 82.925781 75.453125 82.925781 L 52.039062 82.925781 L 52.039062 38.527344 L 110.199219 38.527344 L 110.199219 64.066406 C 110.199219 64.226562 110.230469 64.382812 110.292969 64.535156 C 110.351562 64.683594 110.441406 64.816406 110.554688 64.929688 C 110.671875 65.042969 110.804688 65.132812 110.953125 65.195312 C 111.101562 65.257812 111.257812 65.289062 111.421875 65.289062 C 111.582031 65.289062 111.738281 65.257812 111.886719 65.195312 C 112.039062 65.132812 112.171875 65.042969 112.285156 64.929688 C 112.398438 64.816406 112.488281 64.683594 112.550781 64.535156 C 112.613281 64.382812 112.644531 64.226562 112.644531 64.066406 L 112.644531 37.300781 C 112.644531 37.058594 112.578125 36.835938 112.445312 36.632812 C 112.3125 36.433594 112.136719 36.28125 111.917969 36.183594 C 111.742188 36.105469 111.554688 36.074219 111.363281 36.082031 L 50.816406 36.082031 C 50.652344 36.082031 50.496094 36.113281 50.347656 36.171875 C 50.199219 36.234375 50.066406 36.324219 49.953125 36.4375 C 49.835938 36.554688 49.75 36.6875 49.6875 36.835938 C 49.625 36.984375 49.59375 37.140625 49.59375 37.304688 L 49.59375 84.148438 C 49.59375 84.308594 49.625 84.464844 49.6875 84.613281 C 49.75 84.765625 49.835938 84.898438 49.953125 85.011719 C 50.066406 85.125 50.199219 85.214844 50.347656 85.277344 C 50.5 85.339844 50.652344 85.371094 50.816406 85.371094 Z M 50.816406 85.371094 " fill-opacity="1" fill-rule="nonzero"/></g><path fill="#ffffff" d="M 105.503906 44.882812 C 105.503906 44.722656 105.472656 44.566406 105.410156 44.417969 C 105.347656 44.265625 105.261719 44.132812 105.144531 44.019531 C 105.03125 43.90625 104.898438 43.816406 104.75 43.753906 C 104.597656 43.691406 104.445312 43.660156 104.28125 43.660156 L 59.253906 43.660156 C 59.089844 43.660156 58.933594 43.691406 58.785156 43.753906 C 58.636719 43.816406 58.503906 43.90625 58.390625 44.019531 C 58.273438 44.132812 58.1875 44.265625 58.125 44.417969 C 58.0625 44.566406 58.03125 44.722656 58.03125 44.882812 C 58.03125 45.046875 58.0625 45.203125 58.125 45.351562 C 58.1875 45.5 58.273438 45.632812 58.390625 45.75 C 58.503906 45.863281 58.636719 45.953125 58.785156 46.015625 C 58.933594 46.074219 59.089844 46.105469 59.253906 46.105469 L 104.28125 46.105469 C 104.445312 46.105469 104.597656 46.074219 104.75 46.015625 C 104.898438 45.953125 105.03125 45.863281 105.144531 45.75 C 105.261719 45.632812 105.347656 45.5 105.410156 45.351562 C 105.472656 45.203125 105.503906 45.046875 105.503906 44.882812 Z M 105.503906 44.882812 " fill-opacity="1" fill-rule="nonzero"/><path fill="#ffffff" d="M 104.28125 51.394531 L 82.867188 51.394531 C 82.703125 51.394531 82.546875 51.425781 82.398438 51.488281 C 82.25 51.550781 82.117188 51.640625 82.003906 51.753906 C 81.886719 51.867188 81.800781 52 81.738281 52.148438 C 81.675781 52.300781 81.644531 52.457031 81.644531 52.617188 C 81.644531 52.78125 81.675781 52.9375 81.738281 53.085938 C 81.800781 53.234375 81.886719 53.367188 82.003906 53.480469 C 82.117188 53.597656 82.25 53.683594 82.398438 53.746094 C 82.546875 53.808594 82.703125 53.839844 82.867188 53.839844 L 104.28125 53.839844 C 104.445312 53.839844 104.597656 53.808594 104.75 53.746094 C 104.898438 53.683594 105.03125 53.597656 105.144531 53.480469 C 105.261719 53.367188 105.347656 53.234375 105.410156 53.085938 C 105.472656 52.9375 105.503906 52.78125 105.503906 52.617188 C 105.503906 52.457031 105.472656 52.300781 105.410156 52.148438 C 105.347656 52 105.261719 51.867188 105.144531 51.753906 C 105.03125 51.640625 104.898438 51.550781 104.75 51.488281 C 104.597656 51.425781 104.445312 51.394531 104.28125 51.394531 Z M 104.28125 51.394531 " fill-opacity="1" fill-rule="nonzero"/><path fill="#ffffff" d="M 104.28125 60.382812 C 104.441406 60.382812 104.597656 60.355469 104.75 60.292969 C 104.898438 60.230469 105.03125 60.144531 105.144531 60.027344 C 105.261719 59.914062 105.351562 59.78125 105.414062 59.632812 C 105.476562 59.484375 105.507812 59.328125 105.507812 59.164062 C 105.507812 59.003906 105.476562 58.847656 105.414062 58.699219 C 105.355469 58.546875 105.265625 58.414062 105.152344 58.300781 C 105.039062 58.183594 104.90625 58.097656 104.757812 58.035156 C 104.605469 57.972656 104.453125 57.941406 104.289062 57.9375 L 82.875 57.789062 L 82.867188 57.789062 C 82.703125 57.789062 82.546875 57.820312 82.398438 57.882812 C 82.25 57.941406 82.117188 58.03125 82 58.144531 C 81.886719 58.257812 81.796875 58.390625 81.734375 58.539062 C 81.671875 58.691406 81.640625 58.847656 81.640625 59.007812 C 81.640625 59.171875 81.667969 59.328125 81.730469 59.476562 C 81.792969 59.625 81.878906 59.757812 81.996094 59.875 C 82.109375 59.988281 82.242188 60.078125 82.390625 60.140625 C 82.539062 60.203125 82.695312 60.234375 82.859375 60.234375 L 104.273438 60.382812 Z M 104.28125 60.382812 " fill-opacity="1" fill-rule="nonzero"/><path fill="#ffffff" d="M 82.867188 64.628906 C 82.703125 64.628906 82.546875 64.660156 82.398438 64.722656 C 82.25 64.78125 82.117188 64.871094 82.003906 64.984375 C 81.886719 65.101562 81.800781 65.234375 81.738281 65.382812 C 81.675781 65.53125 81.644531 65.6875 81.644531 65.851562 C 81.644531 66.011719 81.675781 66.167969 81.738281 66.320312 C 81.800781 66.46875 81.886719 66.601562 82.003906 66.714844 C 82.117188 66.828125 82.25 66.917969 82.398438 66.980469 C 82.546875 67.042969 82.703125 67.074219 82.867188 67.074219 L 90.15625 67.074219 C 90.316406 67.074219 90.472656 67.042969 90.621094 66.980469 C 90.773438 66.917969 90.90625 66.828125 91.019531 66.714844 C 91.132812 66.601562 91.222656 66.46875 91.285156 66.320312 C 91.347656 66.167969 91.378906 66.011719 91.378906 65.851562 C 91.378906 65.6875 91.347656 65.53125 91.285156 65.382812 C 91.222656 65.234375 91.132812 65.101562 91.019531 64.984375 C 90.90625 64.871094 90.773438 64.78125 90.621094 64.722656 C 90.472656 64.660156 90.316406 64.628906 90.15625 64.628906 Z M 82.867188 64.628906 " fill-opacity="1" fill-rule="nonzero"/><path fill="#ffffff" d="M 58.03125 59.691406 C 58.03125 61.59375 58.539062 63.351562 59.550781 64.964844 C 59.566406 65 59.582031 65.039062 59.605469 65.070312 C 59.617188 65.089844 59.632812 65.101562 59.644531 65.121094 C 59.859375 65.453125 60.097656 65.769531 60.351562 66.074219 C 60.605469 66.378906 60.875 66.667969 61.164062 66.9375 C 61.453125 67.210938 61.753906 67.464844 62.074219 67.699219 C 62.390625 67.9375 62.722656 68.152344 63.066406 68.347656 C 63.410156 68.542969 63.765625 68.71875 64.128906 68.875 C 64.496094 69.027344 64.867188 69.160156 65.25 69.269531 C 65.628906 69.378906 66.015625 69.464844 66.40625 69.53125 C 66.796875 69.59375 67.191406 69.632812 67.585938 69.652344 C 67.984375 69.667969 68.378906 69.660156 68.773438 69.632812 C 69.167969 69.601562 69.558594 69.546875 69.949219 69.472656 C 70.335938 69.394531 70.71875 69.292969 71.097656 69.171875 C 71.472656 69.050781 71.839844 68.90625 72.203125 68.738281 C 72.5625 68.574219 72.910156 68.386719 73.246094 68.179688 C 73.585938 67.972656 73.910156 67.742188 74.21875 67.496094 C 74.527344 67.25 74.824219 66.988281 75.101562 66.707031 C 75.382812 66.425781 75.644531 66.128906 75.886719 65.816406 C 76.128906 65.503906 76.355469 65.175781 76.558594 64.839844 C 76.765625 64.5 76.949219 64.148438 77.109375 63.789062 C 77.273438 63.425781 77.414062 63.058594 77.535156 62.679688 C 77.652344 62.300781 77.75 61.917969 77.824219 61.527344 C 77.898438 61.140625 77.949219 60.746094 77.972656 60.351562 C 78 59.957031 78.003906 59.5625 77.984375 59.164062 C 77.964844 58.769531 77.917969 58.378906 77.851562 57.988281 C 77.785156 57.597656 77.695312 57.210938 77.582031 56.832031 C 77.46875 56.453125 77.335938 56.078125 77.175781 55.714844 C 77.019531 55.351562 76.84375 55 76.644531 54.65625 C 76.445312 54.316406 76.226562 53.984375 75.988281 53.667969 C 75.75 53.351562 75.492188 53.050781 75.21875 52.765625 C 74.941406 52.480469 74.652344 52.210938 74.347656 51.960938 C 74.039062 51.707031 73.71875 51.476562 73.386719 51.261719 C 73.050781 51.050781 72.707031 50.855469 72.351562 50.683594 C 71.992188 50.511719 71.628906 50.363281 71.253906 50.234375 C 70.878906 50.105469 70.496094 50 70.109375 49.917969 C 69.722656 49.832031 69.332031 49.773438 68.9375 49.738281 C 68.542969 49.699219 68.148438 49.6875 67.75 49.695312 C 67.355469 49.707031 66.960938 49.742188 66.570312 49.800781 C 66.175781 49.855469 65.789062 49.9375 65.40625 50.039062 C 65.023438 50.144531 64.648438 50.269531 64.28125 50.417969 C 63.914062 50.566406 63.558594 50.734375 63.210938 50.925781 C 62.863281 51.117188 62.527344 51.328125 62.207031 51.558594 C 61.882812 51.789062 61.578125 52.035156 61.285156 52.304688 C 60.992188 52.570312 60.714844 52.855469 60.457031 53.152344 C 60.199219 53.453125 59.957031 53.769531 59.734375 54.097656 C 59.515625 54.425781 59.3125 54.765625 59.132812 55.117188 C 58.953125 55.46875 58.792969 55.832031 58.65625 56.203125 C 58.515625 56.574219 58.402344 56.953125 58.308594 57.339844 C 58.214844 57.722656 58.144531 58.113281 58.097656 58.507812 C 58.054688 58.898438 58.03125 59.292969 58.03125 59.691406 Z M 62.414062 64.726562 L 67.480469 61.492188 L 69.878906 67.003906 C 69.214844 67.175781 68.535156 67.253906 67.847656 67.242188 C 67.160156 67.226562 66.484375 67.117188 65.828125 66.917969 C 65.167969 66.714844 64.550781 66.429688 63.96875 66.058594 C 63.390625 65.6875 62.871094 65.242188 62.414062 64.726562 Z M 75.578125 59.691406 C 75.578125 60.320312 75.5 60.941406 75.34375 61.554688 C 75.1875 62.164062 74.960938 62.746094 74.65625 63.300781 C 74.355469 63.851562 73.988281 64.359375 73.558594 64.824219 C 73.132812 65.285156 72.652344 65.6875 72.121094 66.027344 L 69.148438 59.203125 C 69.136719 59.171875 69.117188 59.144531 69.101562 59.117188 C 69.085938 59.085938 69.074219 59.058594 69.058594 59.035156 C 69.054688 59.027344 69.046875 59.023438 69.042969 59.015625 C 69.015625 58.976562 68.988281 58.941406 68.960938 58.910156 C 68.9375 58.878906 68.914062 58.851562 68.886719 58.828125 C 68.859375 58.800781 68.828125 58.777344 68.796875 58.753906 C 68.765625 58.726562 68.734375 58.699219 68.699219 58.675781 C 68.671875 58.65625 68.640625 58.644531 68.609375 58.625 C 68.570312 58.605469 68.53125 58.585938 68.492188 58.566406 C 68.417969 58.542969 68.34375 58.519531 68.269531 58.5 C 68.234375 58.492188 68.195312 58.488281 68.15625 58.484375 C 68.121094 58.480469 68.078125 58.476562 68.035156 58.476562 C 67.996094 58.476562 67.960938 58.480469 67.925781 58.484375 C 67.886719 58.488281 67.84375 58.488281 67.796875 58.496094 C 67.753906 58.503906 67.734375 58.515625 67.699219 58.523438 C 67.652344 58.535156 67.609375 58.550781 67.5625 58.570312 C 67.554688 58.570312 67.550781 58.574219 67.542969 58.574219 C 67.515625 58.589844 67.492188 58.605469 67.464844 58.617188 C 67.441406 58.632812 67.402344 58.648438 67.371094 58.667969 L 61.097656 62.675781 C 60.875 62.160156 60.710938 61.628906 60.609375 61.078125 C 60.507812 60.527344 60.464844 59.972656 60.488281 59.410156 C 60.507812 58.851562 60.589844 58.300781 60.734375 57.757812 C 60.878906 57.21875 61.078125 56.699219 61.339844 56.203125 C 61.597656 55.703125 61.910156 55.242188 62.269531 54.816406 C 62.632812 54.386719 63.039062 54.003906 63.484375 53.667969 C 63.933594 53.328125 64.410156 53.046875 64.921875 52.8125 C 65.433594 52.582031 65.964844 52.410156 66.511719 52.296875 C 67.0625 52.1875 67.617188 52.132812 68.175781 52.144531 C 68.734375 52.15625 69.289062 52.226562 69.832031 52.359375 C 70.375 52.496094 70.898438 52.6875 71.402344 52.9375 C 71.902344 53.1875 72.371094 53.488281 72.804688 53.84375 C 73.238281 54.195312 73.628906 54.59375 73.976562 55.035156 C 74.320312 55.476562 74.613281 55.949219 74.855469 56.457031 C 75.09375 56.960938 75.277344 57.488281 75.398438 58.035156 C 75.523438 58.582031 75.585938 59.136719 75.585938 59.695312 Z M 75.578125 59.691406 " fill-opacity="1" fill-rule="nonzero"/><g clip-path="url(#17e55513c8)"><path fill="#ffffff" d="M 113.824219 80.796875 L 111.203125 80.796875 C 111.148438 80.800781 111.097656 80.804688 111.042969 80.8125 C 111.015625 80.8125 110.988281 80.820312 110.960938 80.824219 C 110.914062 80.839844 110.863281 80.851562 110.816406 80.871094 C 110.789062 80.882812 110.761719 80.886719 110.738281 80.898438 C 110.691406 80.921875 110.648438 80.945312 110.601562 80.972656 C 110.578125 80.988281 110.554688 81 110.53125 81.015625 C 110.492188 81.042969 110.457031 81.074219 110.421875 81.105469 C 110.398438 81.128906 110.371094 81.148438 110.347656 81.175781 C 110.335938 81.183594 110.328125 81.191406 110.316406 81.203125 L 105.058594 87.09375 L 99.796875 81.203125 C 99.789062 81.191406 99.773438 81.183594 99.761719 81.171875 C 99.753906 81.15625 99.726562 81.136719 99.707031 81.117188 C 99.667969 81.082031 99.625 81.046875 99.578125 81.015625 C 99.5625 81.003906 99.546875 80.996094 99.53125 80.984375 C 99.480469 80.953125 99.425781 80.921875 99.367188 80.898438 C 99.355469 80.890625 99.339844 80.886719 99.328125 80.882812 C 99.265625 80.859375 99.203125 80.839844 99.140625 80.824219 L 99.101562 80.820312 C 99.035156 80.804688 98.964844 80.800781 98.894531 80.796875 L 87.390625 80.796875 C 87.273438 80.796875 87.179688 80.757812 87.101562 80.671875 L 78.839844 71.910156 C 78.351562 71.394531 77.75 71.152344 77.039062 71.1875 C 76.328125 71.21875 75.753906 71.519531 75.316406 72.082031 L 73.628906 74.265625 C 73.339844 74.640625 73.179688 75.0625 73.148438 75.53125 C 73.121094 76.003906 73.222656 76.441406 73.460938 76.847656 L 81.46875 90.660156 C 81.703125 91.070312 82.054688 91.273438 82.527344 91.269531 L 91.859375 91.269531 L 91.859375 104.179688 C 91.859375 104.34375 91.890625 104.5 91.953125 104.648438 C 92.015625 104.800781 92.105469 104.929688 92.21875 105.046875 C 92.332031 105.160156 92.464844 105.25 92.617188 105.3125 C 92.765625 105.375 92.921875 105.402344 93.082031 105.402344 L 120.09375 105.402344 C 120.253906 105.402344 120.410156 105.375 120.558594 105.3125 C 120.710938 105.25 120.84375 105.160156 120.957031 105.046875 C 121.070312 104.929688 121.160156 104.800781 121.222656 104.648438 C 121.285156 104.5 121.316406 104.34375 121.316406 104.179688 L 121.316406 88.289062 C 121.316406 87.796875 121.265625 87.308594 121.171875 86.828125 C 121.074219 86.34375 120.929688 85.875 120.742188 85.421875 C 120.554688 84.96875 120.324219 84.535156 120.050781 84.128906 C 119.777344 83.71875 119.464844 83.339844 119.117188 82.992188 C 118.769531 82.644531 118.394531 82.335938 117.984375 82.0625 C 117.574219 81.789062 117.144531 81.558594 116.691406 81.371094 C 116.234375 81.179688 115.765625 81.039062 115.285156 80.941406 C 114.804688 80.847656 114.316406 80.796875 113.824219 80.796875 Z M 118.871094 88.289062 L 118.871094 102.957031 L 106.28125 102.957031 L 106.28125 89.398438 L 111.78125 83.242188 L 113.828125 83.242188 C 114.160156 83.242188 114.488281 83.277344 114.8125 83.339844 C 115.136719 83.40625 115.453125 83.503906 115.757812 83.628906 C 116.0625 83.757812 116.351562 83.910156 116.628906 84.097656 C 116.902344 84.28125 117.15625 84.488281 117.390625 84.722656 C 117.625 84.957031 117.835938 85.210938 118.019531 85.488281 C 118.203125 85.761719 118.359375 86.054688 118.484375 86.359375 C 118.609375 86.664062 118.707031 86.980469 118.773438 87.304688 C 118.835938 87.628906 118.871094 87.957031 118.871094 88.289062 Z M 83.230469 88.828125 L 75.617188 75.699219 L 77.164062 73.695312 L 85.316406 82.339844 C 85.875 82.941406 86.566406 83.242188 87.390625 83.242188 L 98.339844 83.242188 L 103.835938 89.398438 L 103.835938 102.960938 L 94.304688 102.960938 L 94.304688 90.839844 C 94.304688 90.574219 94.253906 90.316406 94.152344 90.070312 C 94.050781 89.824219 93.90625 89.609375 93.714844 89.417969 C 93.527344 89.230469 93.3125 89.085938 93.0625 88.984375 C 92.816406 88.878906 92.5625 88.828125 92.292969 88.828125 Z M 83.230469 88.828125 " fill-opacity="1" fill-rule="nonzero"/></g><path fill="#ffffff" d="M 108.742188 91.761719 C 108.742188 91.921875 108.773438 92.078125 108.835938 92.226562 C 108.898438 92.378906 108.984375 92.511719 109.101562 92.625 C 109.214844 92.738281 109.347656 92.828125 109.496094 92.890625 C 109.644531 92.953125 109.800781 92.984375 109.964844 92.984375 L 115.617188 92.984375 C 115.777344 92.984375 115.933594 92.953125 116.085938 92.890625 C 116.234375 92.828125 116.367188 92.738281 116.480469 92.625 C 116.59375 92.511719 116.683594 92.378906 116.746094 92.226562 C 116.808594 92.078125 116.839844 91.921875 116.839844 91.761719 C 116.839844 91.597656 116.808594 91.441406 116.746094 91.292969 C 116.683594 91.140625 116.59375 91.011719 116.480469 90.894531 C 116.367188 90.78125 116.234375 90.691406 116.085938 90.628906 C 115.933594 90.570312 115.777344 90.539062 115.617188 90.539062 L 109.964844 90.539062 C 109.800781 90.539062 109.644531 90.570312 109.496094 90.628906 C 109.347656 90.691406 109.214844 90.78125 109.101562 90.894531 C 108.984375 91.011719 108.898438 91.140625 108.835938 91.292969 C 108.773438 91.441406 108.742188 91.597656 108.742188 91.761719 Z M 108.742188 91.761719 " fill-opacity="1" fill-rule="nonzero"/><path fill="#ffffff" d="M 105.015625 82.050781 C 105.605469 82.050781 106.191406 81.992188 106.773438 81.875 C 107.351562 81.761719 107.917969 81.589844 108.460938 81.363281 C 109.007812 81.136719 109.527344 80.859375 110.019531 80.53125 C 110.511719 80.203125 110.96875 79.828125 111.386719 79.410156 C 111.804688 78.992188 112.179688 78.539062 112.507812 78.046875 C 112.835938 77.554688 113.113281 77.035156 113.339844 76.488281 C 113.566406 75.941406 113.738281 75.378906 113.851562 74.800781 C 113.96875 74.21875 114.027344 73.632812 114.027344 73.042969 C 114.027344 72.449219 113.96875 71.863281 113.855469 71.285156 C 113.738281 70.703125 113.566406 70.140625 113.339844 69.59375 C 113.113281 69.046875 112.835938 68.527344 112.507812 68.035156 C 112.179688 67.542969 111.808594 67.089844 111.386719 66.671875 C 110.96875 66.25 110.515625 65.878906 110.023438 65.550781 C 109.53125 65.222656 109.011719 64.941406 108.464844 64.714844 C 107.917969 64.492188 107.355469 64.320312 106.777344 64.203125 C 106.195312 64.089844 105.609375 64.03125 105.019531 64.03125 C 104.425781 64.03125 103.839844 64.089844 103.261719 64.203125 C 102.679688 64.320312 102.117188 64.488281 101.570312 64.714844 C 101.023438 64.941406 100.503906 65.21875 100.011719 65.546875 C 99.519531 65.878906 99.066406 66.25 98.648438 66.667969 C 98.230469 67.085938 97.855469 67.542969 97.527344 68.035156 C 97.199219 68.527344 96.921875 69.046875 96.695312 69.59375 C 96.46875 70.136719 96.296875 70.703125 96.179688 71.28125 C 96.066406 71.863281 96.007812 72.449219 96.007812 73.039062 C 96.007812 73.632812 96.066406 74.214844 96.183594 74.796875 C 96.296875 75.375 96.46875 75.9375 96.695312 76.484375 C 96.921875 77.03125 97.199219 77.550781 97.527344 78.042969 C 97.859375 78.535156 98.230469 78.988281 98.648438 79.40625 C 99.066406 79.824219 99.523438 80.199219 100.011719 80.527344 C 100.503906 80.855469 101.023438 81.132812 101.570312 81.359375 C 102.117188 81.585938 102.679688 81.757812 103.257812 81.875 C 103.839844 81.988281 104.421875 82.046875 105.015625 82.050781 Z M 105.015625 66.476562 C 105.445312 66.476562 105.871094 66.519531 106.296875 66.601562 C 106.71875 66.6875 107.128906 66.8125 107.527344 66.976562 C 107.925781 67.140625 108.304688 67.34375 108.660156 67.582031 C 109.019531 67.820312 109.351562 68.09375 109.65625 68.398438 C 109.960938 68.703125 110.234375 69.035156 110.472656 69.394531 C 110.710938 69.753906 110.914062 70.128906 111.078125 70.527344 C 111.246094 70.925781 111.367188 71.335938 111.453125 71.761719 C 111.535156 72.183594 111.578125 72.609375 111.578125 73.039062 C 111.578125 73.472656 111.535156 73.898438 111.453125 74.320312 C 111.367188 74.746094 111.242188 75.15625 111.078125 75.554688 C 110.914062 75.949219 110.710938 76.328125 110.472656 76.6875 C 110.234375 77.046875 109.960938 77.378906 109.65625 77.683594 C 109.351562 77.988281 109.019531 78.257812 108.660156 78.5 C 108.304688 78.738281 107.925781 78.941406 107.527344 79.105469 C 107.128906 79.269531 106.71875 79.394531 106.292969 79.480469 C 105.871094 79.5625 105.445312 79.605469 105.015625 79.605469 C 104.582031 79.605469 104.15625 79.5625 103.734375 79.480469 C 103.3125 79.394531 102.902344 79.269531 102.503906 79.105469 C 102.105469 78.941406 101.726562 78.738281 101.367188 78.5 C 101.007812 78.257812 100.675781 77.988281 100.371094 77.683594 C 100.066406 77.375 99.796875 77.046875 99.554688 76.6875 C 99.316406 76.328125 99.113281 75.949219 98.949219 75.550781 C 98.785156 75.152344 98.660156 74.742188 98.578125 74.320312 C 98.492188 73.898438 98.449219 73.472656 98.449219 73.039062 C 98.449219 72.609375 98.492188 72.183594 98.578125 71.761719 C 98.664062 71.335938 98.789062 70.925781 98.953125 70.527344 C 99.117188 70.132812 99.320312 69.753906 99.558594 69.394531 C 99.800781 69.035156 100.070312 68.707031 100.375 68.402344 C 100.679688 68.097656 101.011719 67.824219 101.371094 67.585938 C 101.726562 67.34375 102.105469 67.144531 102.503906 66.976562 C 102.902344 66.8125 103.3125 66.6875 103.734375 66.605469 C 104.15625 66.519531 104.582031 66.476562 105.015625 66.476562 Z M 105.015625 66.476562 " fill-opacity="1" fill-rule="nonzero"/><g fill="#ffffff" fill-opacity="1"><g transform="translate(51.53, 130.224314)"><g><path d="M 6.078125 -11.015625 C 7.046875 -11.015625 7.890625 -10.847656 8.609375 -10.515625 C 9.328125 -10.191406 9.878906 -9.734375 10.265625 -9.140625 C 10.660156 -8.546875 10.859375 -7.835938 10.859375 -7.015625 C 10.859375 -6.210938 10.660156 -5.507812 10.265625 -4.90625 C 9.878906 -4.300781 9.328125 -3.835938 8.609375 -3.515625 C 7.890625 -3.191406 7.046875 -3.03125 6.078125 -3.03125 L 3.859375 -3.03125 L 3.859375 0 L 1.3125 0 L 1.3125 -11.015625 Z M 5.9375 -5.109375 C 6.695312 -5.109375 7.273438 -5.273438 7.671875 -5.609375 C 8.078125 -5.941406 8.28125 -6.410156 8.28125 -7.015625 C 8.28125 -7.640625 8.078125 -8.113281 7.671875 -8.4375 C 7.273438 -8.769531 6.695312 -8.9375 5.9375 -8.9375 L 3.859375 -8.9375 L 3.859375 -5.109375 Z M 5.9375 -5.109375 "/></g></g></g><g fill="#ffffff" fill-opacity="1"><g transform="translate(63.043855, 130.224314)"><g><path d="M 3.484375 -7.34375 C 3.773438 -7.757812 4.164062 -8.070312 4.65625 -8.28125 C 5.15625 -8.488281 5.734375 -8.59375 6.390625 -8.59375 L 6.390625 -6.328125 C 6.117188 -6.347656 5.9375 -6.359375 5.84375 -6.359375 C 5.132812 -6.359375 4.582031 -6.160156 4.1875 -5.765625 C 3.789062 -5.367188 3.59375 -4.78125 3.59375 -4 L 3.59375 0 L 1.140625 0 L 1.140625 -8.46875 L 3.484375 -8.46875 Z M 3.484375 -7.34375 "/></g></g></g><g fill="#ffffff" fill-opacity="1"><g transform="translate(69.823189, 130.224314)"><g><path d="M 5.15625 0.125 C 4.269531 0.125 3.472656 -0.0546875 2.765625 -0.421875 C 2.054688 -0.796875 1.5 -1.3125 1.09375 -1.96875 C 0.695312 -2.632812 0.5 -3.390625 0.5 -4.234375 C 0.5 -5.066406 0.695312 -5.8125 1.09375 -6.46875 C 1.5 -7.132812 2.054688 -7.65625 2.765625 -8.03125 C 3.472656 -8.40625 4.269531 -8.59375 5.15625 -8.59375 C 6.050781 -8.59375 6.847656 -8.40625 7.546875 -8.03125 C 8.253906 -7.65625 8.804688 -7.132812 9.203125 -6.46875 C 9.597656 -5.8125 9.796875 -5.066406 9.796875 -4.234375 C 9.796875 -3.390625 9.597656 -2.632812 9.203125 -1.96875 C 8.804688 -1.3125 8.253906 -0.796875 7.546875 -0.421875 C 6.847656 -0.0546875 6.050781 0.125 5.15625 0.125 Z M 5.15625 -1.890625 C 5.789062 -1.890625 6.304688 -2.097656 6.703125 -2.515625 C 7.109375 -2.941406 7.3125 -3.515625 7.3125 -4.234375 C 7.3125 -4.941406 7.109375 -5.507812 6.703125 -5.9375 C 6.304688 -6.363281 5.789062 -6.578125 5.15625 -6.578125 C 4.53125 -6.578125 4.007812 -6.363281 3.59375 -5.9375 C 3.1875 -5.507812 2.984375 -4.941406 2.984375 -4.234375 C 2.984375 -3.515625 3.1875 -2.941406 3.59375 -2.515625 C 4.007812 -2.097656 4.53125 -1.890625 5.15625 -1.890625 Z M 5.15625 -1.890625 "/></g></g></g><g fill="#ffffff" fill-opacity="1"><g transform="translate(80.125885, 130.224314)"><g><path d="M 0.5 3.171875 C -0.351562 3.171875 -1.007812 3.015625 -1.46875 2.703125 L -0.796875 0.921875 C -0.515625 1.128906 -0.171875 1.234375 0.234375 1.234375 C 0.546875 1.234375 0.789062 1.128906 0.96875 0.921875 C 1.15625 0.710938 1.25 0.40625 1.25 0 L 1.25 -8.46875 L 3.703125 -8.46875 L 3.703125 -0.015625 C 3.703125 0.972656 3.421875 1.75 2.859375 2.3125 C 2.296875 2.882812 1.507812 3.171875 0.5 3.171875 Z M 2.46875 -9.640625 C 2.019531 -9.640625 1.648438 -9.769531 1.359375 -10.03125 C 1.078125 -10.300781 0.9375 -10.628906 0.9375 -11.015625 C 0.9375 -11.398438 1.078125 -11.722656 1.359375 -11.984375 C 1.648438 -12.253906 2.019531 -12.390625 2.46875 -12.390625 C 2.914062 -12.390625 3.28125 -12.257812 3.5625 -12 C 3.851562 -11.75 4 -11.4375 4 -11.0625 C 4 -10.65625 3.851562 -10.316406 3.5625 -10.046875 C 3.28125 -9.773438 2.914062 -9.640625 2.46875 -9.640625 Z M 2.46875 -9.640625 "/></g></g></g><g fill="#ffffff" fill-opacity="1"><g transform="translate(84.95478, 130.224314)"><g><path d="M 9.421875 -4.203125 C 9.421875 -4.171875 9.40625 -3.953125 9.375 -3.546875 L 2.96875 -3.546875 C 3.082031 -3.015625 3.351562 -2.597656 3.78125 -2.296875 C 4.21875 -1.992188 4.753906 -1.84375 5.390625 -1.84375 C 5.835938 -1.84375 6.226562 -1.90625 6.5625 -2.03125 C 6.90625 -2.164062 7.222656 -2.375 7.515625 -2.65625 L 8.828125 -1.25 C 8.023438 -0.332031 6.859375 0.125 5.328125 0.125 C 4.378906 0.125 3.535156 -0.0546875 2.796875 -0.421875 C 2.066406 -0.796875 1.5 -1.3125 1.09375 -1.96875 C 0.695312 -2.632812 0.5 -3.390625 0.5 -4.234375 C 0.5 -5.054688 0.695312 -5.800781 1.09375 -6.46875 C 1.488281 -7.132812 2.03125 -7.65625 2.71875 -8.03125 C 3.40625 -8.40625 4.171875 -8.59375 5.015625 -8.59375 C 5.847656 -8.59375 6.597656 -8.410156 7.265625 -8.046875 C 7.941406 -7.691406 8.46875 -7.179688 8.84375 -6.515625 C 9.226562 -5.847656 9.421875 -5.078125 9.421875 -4.203125 Z M 5.03125 -6.734375 C 4.476562 -6.734375 4.007812 -6.578125 3.625 -6.265625 C 3.25 -5.953125 3.019531 -5.519531 2.9375 -4.96875 L 7.109375 -4.96875 C 7.023438 -5.507812 6.796875 -5.9375 6.421875 -6.25 C 6.046875 -6.570312 5.582031 -6.734375 5.03125 -6.734375 Z M 5.03125 -6.734375 "/></g></g></g><g fill="#ffffff" fill-opacity="1"><g transform="translate(94.879971, 130.224314)"><g><path d="M 5.21875 0.125 C 4.320312 0.125 3.515625 -0.0546875 2.796875 -0.421875 C 2.078125 -0.796875 1.515625 -1.3125 1.109375 -1.96875 C 0.703125 -2.632812 0.5 -3.390625 0.5 -4.234375 C 0.5 -5.066406 0.703125 -5.8125 1.109375 -6.46875 C 1.515625 -7.132812 2.078125 -7.65625 2.796875 -8.03125 C 3.515625 -8.40625 4.320312 -8.59375 5.21875 -8.59375 C 6.113281 -8.59375 6.894531 -8.40625 7.5625 -8.03125 C 8.226562 -7.65625 8.710938 -7.125 9.015625 -6.4375 L 7.109375 -5.40625 C 6.671875 -6.1875 6.035156 -6.578125 5.203125 -6.578125 C 4.566406 -6.578125 4.035156 -6.363281 3.609375 -5.9375 C 3.191406 -5.519531 2.984375 -4.953125 2.984375 -4.234375 C 2.984375 -3.503906 3.191406 -2.929688 3.609375 -2.515625 C 4.035156 -2.097656 4.566406 -1.890625 5.203125 -1.890625 C 6.046875 -1.890625 6.679688 -2.273438 7.109375 -3.046875 L 9.015625 -2.015625 C 8.710938 -1.335938 8.226562 -0.8125 7.5625 -0.4375 C 6.894531 -0.0625 6.113281 0.125 5.21875 0.125 Z M 5.21875 0.125 "/></g></g></g><g fill="#ffffff" fill-opacity="1"><g transform="translate(104.175991, 130.224314)"><g><path d="M 6.59375 -0.40625 C 6.351562 -0.226562 6.054688 -0.09375 5.703125 0 C 5.347656 0.0820312 4.976562 0.125 4.59375 0.125 C 3.582031 0.125 2.800781 -0.128906 2.25 -0.640625 C 1.707031 -1.160156 1.4375 -1.914062 1.4375 -2.90625 L 1.4375 -6.390625 L 0.125 -6.390625 L 0.125 -8.28125 L 1.4375 -8.28125 L 1.4375 -10.34375 L 3.890625 -10.34375 L 3.890625 -8.28125 L 6 -8.28125 L 6 -6.390625 L 3.890625 -6.390625 L 3.890625 -2.9375 C 3.890625 -2.582031 3.976562 -2.304688 4.15625 -2.109375 C 4.34375 -1.921875 4.601562 -1.828125 4.9375 -1.828125 C 5.320312 -1.828125 5.65625 -1.929688 5.9375 -2.140625 Z M 6.59375 -0.40625 "/></g></g></g><g fill="#ffffff" fill-opacity="1"><g transform="translate(111.018237, 130.224314)"><g><path d="M 3.984375 0.125 C 3.273438 0.125 2.582031 0.0390625 1.90625 -0.125 C 1.238281 -0.300781 0.707031 -0.519531 0.3125 -0.78125 L 1.140625 -2.546875 C 1.515625 -2.304688 1.96875 -2.109375 2.5 -1.953125 C 3.03125 -1.804688 3.554688 -1.734375 4.078125 -1.734375 C 5.117188 -1.734375 5.640625 -1.988281 5.640625 -2.5 C 5.640625 -2.738281 5.492188 -2.910156 5.203125 -3.015625 C 4.921875 -3.117188 4.488281 -3.207031 3.90625 -3.28125 C 3.207031 -3.394531 2.632812 -3.519531 2.1875 -3.65625 C 1.738281 -3.789062 1.347656 -4.03125 1.015625 -4.375 C 0.679688 -4.71875 0.515625 -5.210938 0.515625 -5.859375 C 0.515625 -6.390625 0.671875 -6.863281 0.984375 -7.28125 C 1.296875 -7.695312 1.742188 -8.019531 2.328125 -8.25 C 2.921875 -8.476562 3.625 -8.59375 4.4375 -8.59375 C 5.03125 -8.59375 5.625 -8.523438 6.21875 -8.390625 C 6.8125 -8.265625 7.300781 -8.082031 7.6875 -7.84375 L 6.875 -6.109375 C 6.132812 -6.523438 5.320312 -6.734375 4.4375 -6.734375 C 3.914062 -6.734375 3.519531 -6.660156 3.25 -6.515625 C 2.988281 -6.367188 2.859375 -6.179688 2.859375 -5.953125 C 2.859375 -5.679688 3 -5.492188 3.28125 -5.390625 C 3.570312 -5.285156 4.023438 -5.1875 4.640625 -5.09375 C 5.335938 -4.976562 5.90625 -4.851562 6.34375 -4.71875 C 6.78125 -4.59375 7.160156 -4.359375 7.484375 -4.015625 C 7.816406 -3.671875 7.984375 -3.1875 7.984375 -2.5625 C 7.984375 -2.039062 7.820312 -1.570312 7.5 -1.15625 C 7.1875 -0.75 6.726562 -0.429688 6.125 -0.203125 C 5.519531 0.015625 4.804688 0.125 3.984375 0.125 Z M 3.984375 0.125 "/></g></g></g></svg>