<?xml version="1.0" encoding="utf-8"?>
<svg version="1.1" id="Layer_1" xmlns="http://www.w3.org/2000/svg" xmlns:xlink="http://www.w3.org/1999/xlink" x="0px"
	y="0px" viewBox="0 0 1200 268" xml:space="preserve">
	<g>
		<polygon fill="#888888" points="185,206.9 289.3,206.9 237.1,154.6 	" />
		<path fill="#888888" d="M615.5,25.7c-22.6,0.4-39.7,14.1-48.3,27.2L460.7,240.9h50.1l25-47.1h136.4l25.8,47.1h56.3L630.9,25.7H615.5z
		 M557.1,155l48-87.6l46.3,87.6H557.1z M778.3,200.4V25.7h-1.5c-24.5,0.5-48.4,16.1-48.5,37.5v113.6l36.1,64.1H953l-40.5-40.5H778.3
		z M1186.1,25.7c-23.1,0.4-35.8,13.1-48.4,28.2l-77.8,101.9L958.5,25.7c-23.7,0.5-39.9,13.8-40.5,33.5v134.5l40.5,40.4V107.8
		c0-7.1-0.4-14.2-1.3-22.9c3.3,8.3,7.9,15.4,12.9,22.1l80.9,108h10l80.9-107.6c3.8-5,7.9-12.9,12.5-22.5
		c-1.3,11.2-1.7,18.8-1.7,22.9v133.1h46.3V25.7H1186.1z" />
		<path fill="#888888" d="M234.1,109.7c1.1,1,2,1.9,3.2,2.9c6.2,5.3,13.3,9.8,21.4,13.3c6.3-6.3,12.7-12.6,17-17.1
		c12.1-12.2,31.4-37.5,82.9-37.8L292.7,4.8H129.6l95.9,96.3L234.1,109.7z" />
		<path fill="#888888" d="M185.3,61l48.8,48.7c1.2,1.2,2.3,2.2,3.7,3.4L289.6,61H185.3z M126.5,61L-0.8,189H114
		c50.2-0.2,65.6-22.4,78.8-35.4c9.2-9.1,26.6-26.5,35.6-35.5L171.3,61H126.5z" />
		<path fill="#888888"
			d="M192.8,153.6c4.9-4.9,12.2-12.1,19.2-19.2H53.9l54.3,54.6h5.8C164.2,188.7,179.7,166.6,192.8,153.6z
		 M220.3,137.7c-7.8,7.8-16.2,16.2-21.7,21.7c-12,12.2-31.2,37.3-82.3,37.8l45,45.2c12.9,11.2,29.2,19,51.2,20.7H345L220.3,137.7z" />
		<path fill="#888888" d="M360.4,79.3c-50.2,0.2-65.6,22.4-78.8,35.4L246.2,150l56.9,56.9h45L475.1,79.3H360.4z" />
	</g>
</svg>