<svg xmlns="http://www.w3.org/2000/svg" xmlns:xlink="http://www.w3.org/1999/xlink" viewBox="0 0 150 150" fill="#377dff">
    <defs>
        <clipPath id="clip-path">
            <rect x="105.53" y="112" width="44.47" height="38" style="fill:none" />
        </clipPath>
        <clipPath id="clip-path-2">
            <rect x="46.86" y="112" width="57.33" height="38" style="fill:none" />
        </clipPath>
        <clipPath id="clip-path-3">
            <rect y="112" width="45.53" height="38" style="fill:none" />
        </clipPath>
        <clipPath id="clip-path-4">
            <rect y="72" width="9.53" height="45.33" style="fill:none" />
        </clipPath>
    </defs>
    <g id="Layer_2" data-name="Layer 2">
        <g id="Layer_1-2" data-name="Layer 1">
            <path d="M39.82,53.91a2.35,2.35,0,1,0-4.69,0v4.68a2.35,2.35,0,1,0,4.69,0Z" />
            <path d="M30.44,53.91a2.34,2.34,0,1,0-4.68,0v4.68a2.34,2.34,0,1,0,4.68,0Z" />
            <path d="M39.82,68a2.35,2.35,0,0,0-4.69,0v4.69a2.35,2.35,0,0,0,4.69,0Z" />
            <path d="M30.44,68a2.34,2.34,0,0,0-4.68,0v4.69a2.34,2.34,0,0,0,4.68,0Z" />
            <path d="M124.24,53.91a2.34,2.34,0,1,0-4.68,0v4.68a2.34,2.34,0,1,0,4.68,0Z" />
            <path d="M114.87,53.91a2.35,2.35,0,1,0-4.69,0v4.68a2.35,2.35,0,1,0,4.69,0Z" />
            <path d="M124.24,68a2.34,2.34,0,1,0-4.68,0v4.69a2.34,2.34,0,0,0,4.68,0Z" />
            <path d="M114.87,68a2.35,2.35,0,0,0-4.69,0v4.69a2.35,2.35,0,0,0,4.69,0Z" />
            <path d="M58.57,30.47a2.35,2.35,0,0,0,4.69,0V25.78a2.35,2.35,0,0,0-4.69,0Z" />
            <path d="M67.94,30.47a2.35,2.35,0,0,0,4.69,0V25.78a2.35,2.35,0,0,0-4.69,0Z" />
            <path d="M77.32,30.47a2.35,2.35,0,0,0,4.69,0V25.78a2.35,2.35,0,0,0-4.69,0Z" />
            <path d="M91.38,25.78a2.35,2.35,0,0,0-4.69,0v4.69a2.35,2.35,0,0,0,4.69,0Z" />
            <path d="M58.57,44.53a2.35,2.35,0,1,0,4.69,0V39.84a2.35,2.35,0,0,0-4.69,0Z" />
            <path d="M67.94,44.53a2.35,2.35,0,1,0,4.69,0V39.84a2.35,2.35,0,0,0-4.69,0Z" />
            <path d="M77.32,44.53a2.35,2.35,0,1,0,4.69,0V39.84a2.35,2.35,0,0,0-4.69,0Z" />
            <path d="M91.38,39.84a2.35,2.35,0,0,0-4.69,0v4.69a2.35,2.35,0,1,0,4.69,0Z" />
            <path d="M58.57,58.59a2.35,2.35,0,1,0,4.69,0V53.91a2.35,2.35,0,1,0-4.69,0Z" />
            <path d="M67.94,58.59a2.35,2.35,0,1,0,4.69,0V53.91a2.35,2.35,0,1,0-4.69,0Z" />
            <path d="M77.32,58.59a2.35,2.35,0,1,0,4.69,0V53.91a2.35,2.35,0,1,0-4.69,0Z" />
            <path d="M91.38,53.91a2.35,2.35,0,1,0-4.69,0v4.68a2.35,2.35,0,1,0,4.69,0Z" />
            <path d="M58.57,72.66a2.35,2.35,0,0,0,4.69,0V68a2.35,2.35,0,0,0-4.69,0Z" />
            <path d="M67.94,72.66a2.35,2.35,0,0,0,4.69,0V68a2.35,2.35,0,0,0-4.69,0Z" />
            <path d="M77.32,72.66a2.35,2.35,0,0,0,4.69,0V68a2.35,2.35,0,0,0-4.69,0Z" />
            <path d="M91.38,68a2.35,2.35,0,0,0-4.69,0v4.69a2.35,2.35,0,0,0,4.69,0Z" />
            <path
                d="M60.94,18.75a2.34,2.34,0,0,0,2.34-2.34V11.72a2.35,2.35,0,0,0-4.69,0v4.69A2.35,2.35,0,0,0,60.94,18.75Z" />
            <path
                d="M70.31,18.75a2.35,2.35,0,0,0,2.35-2.34V11.72a2.35,2.35,0,0,0-4.69,0v4.69A2.34,2.34,0,0,0,70.31,18.75Z" />
            <path
                d="M79.69,18.75A2.34,2.34,0,0,0,82,16.41V11.72a2.35,2.35,0,0,0-4.69,0v4.69A2.35,2.35,0,0,0,79.69,18.75Z" />
            <path d="M91.41,11.72a2.35,2.35,0,0,0-4.69,0v4.69a2.35,2.35,0,0,0,4.69,0Z" />
            <path d="M124.24,82a2.34,2.34,0,1,0-4.68,0v.16a17.72,17.72,0,0,1,2.32-.16,18.33,18.33,0,0,1,2.36.17Z" />
            <path d="M114.87,82a2.35,2.35,0,0,0-4.69,0v4.12a18.82,18.82,0,0,1,4.69-2.75Z" />
            <path
                d="M131.17,46.88a1.78,1.78,0,0,1,.08.57V84.57a18.74,18.74,0,0,1,4.69,3.85v-41c0-2.9-1.73-5.26-4.69-5.26H119.53V39.84a2.35,2.35,0,0,0-4.69,0v2.35h-7v4.69Z" />
            <path
                d="M121.88,114.84a14.06,14.06,0,1,0-14.07-14.06A14.07,14.07,0,0,0,121.88,114.84Zm0-23.43a9.38,9.38,0,1,1-9.38,9.37A9.38,9.38,0,0,1,121.88,91.41Z" />
            <path
                d="M28.13,114.84a14.06,14.06,0,1,0-14.07-14.06A14.07,14.07,0,0,0,28.13,114.84Zm0-23.43a9.38,9.38,0,1,1-9.38,9.37A9.38,9.38,0,0,1,28.13,91.41Z" />
            <path
                d="M112.82,117.19a19,19,0,0,1-5.26-4.33,17.26,17.26,0,0,0-5.53,2.22,22.62,22.62,0,0,1,2.77,3.81,12.31,12.31,0,0,1,6.24-1.7Z" />
            <g style="clip-path:url(#clip-path)">
                <path
                    d="M136.2,112.86a19.17,19.17,0,0,1-5.27,4.33h1.78a12.77,12.77,0,0,1,12.6,12.9v13.19a2,2,0,0,1-1.95,2H107.63a11.54,11.54,0,0,1-2,4.69h37.74a6.69,6.69,0,0,0,6.64-6.72V130.09A17.55,17.55,0,0,0,136.2,112.86Z" />
            </g>
            <path
                d="M69.72,118.76,66.87,132a.52.52,0,0,0,0,.11A3.9,3.9,0,0,0,68,135.54l4.12,3.92a4.24,4.24,0,0,0,5.71.07l4.09-3.79a3.92,3.92,0,0,0,1.22-3.46s0-.08,0-.11l-2.76-13.44a18.3,18.3,0,0,1-4.64.76l2.7,13.1L75,135.74l-3.47-3.29,2.8-13A18.28,18.28,0,0,1,69.72,118.76Z" />
            <g style="clip-path:url(#clip-path-2)">
                <path
                    d="M89.32,112.86a19,19,0,0,1-5.26,4.33h1.78a12.77,12.77,0,0,1,12.6,12.9v13.19a2,2,0,0,1-2,2h-43a2,2,0,0,1-2-2V130.09a12.77,12.77,0,0,1,12.6-12.9h1.78a19,19,0,0,1-5.26-4.33,17.54,17.54,0,0,0-13.8,17.23v13.19A6.68,6.68,0,0,0,53.52,150h43a6.69,6.69,0,0,0,6.65-6.72V130.09A17.55,17.55,0,0,0,89.32,112.86Z" />
            </g>
            <path
                d="M89.06,100.78A14.06,14.06,0,1,0,75,114.84,14.07,14.07,0,0,0,89.06,100.78ZM75,110.16a9.38,9.38,0,1,1,9.38-9.38A9.38,9.38,0,0,1,75,110.16Z" />
            <path
                d="M116.6,118.76,113.74,132a.36.36,0,0,1,0,.11,4,4,0,0,0,1.17,3.46l4.12,3.92a4.25,4.25,0,0,0,5.71.07l4.1-3.79a3.92,3.92,0,0,0,1.22-3.46.52.52,0,0,1,0-.11l-2.77-13.44a18.23,18.23,0,0,1-4.63.76l2.7,13.1-3.41,3.15-3.47-3.29,2.79-13A18.2,18.2,0,0,1,116.6,118.76Z" />
            <path d="M67.94,83.42a18.82,18.82,0,0,1,4.69-1.22V82a2.35,2.35,0,0,0-4.69,0Z" />
            <path d="M77.32,82.19A18.49,18.49,0,0,1,82,83.4V82a2.35,2.35,0,0,0-4.69,0Z" />
            <path
                d="M91.38,86.72V82a2.35,2.35,0,0,0-4.69,0v4.12A18.8,18.8,0,0,1,89.56,89,2.33,2.33,0,0,0,91.38,86.72Z" />
            <path d="M58.57,86.72A2.33,2.33,0,0,0,60.43,89a18.41,18.41,0,0,1,2.83-2.82V82a2.35,2.35,0,0,0-4.69,0Z" />
            <path
                d="M22.85,118.76,20,132a.36.36,0,0,1,0,.11,4,4,0,0,0,1.17,3.46l4.12,3.92a4.24,4.24,0,0,0,5.71.07l4.1-3.79a3.92,3.92,0,0,0,1.22-3.46.52.52,0,0,1,0-.11L33.5,118.73a18.23,18.23,0,0,1-4.63.76l2.7,13.1-3.41,3.15-3.47-3.29,2.79-13A18.2,18.2,0,0,1,22.85,118.76Z" />
            <g style="clip-path:url(#clip-path-3)">
                <path
                    d="M6.64,145.31a2,2,0,0,1-1.95-2V130.09a12.77,12.77,0,0,1,12.6-12.9h1.78a19,19,0,0,1-5.26-4.33A17.55,17.55,0,0,0,0,130.09v13.19A6.69,6.69,0,0,0,6.64,150H44.39a11.27,11.27,0,0,1-2-4.69Z" />
            </g>
            <path
                d="M42.44,112.86a19,19,0,0,1-5.26,4.33H39a12.28,12.28,0,0,1,6.24,1.7A21.87,21.87,0,0,1,48,115.1,17.34,17.34,0,0,0,42.44,112.86Z" />
            <path
                d="M18.75,84.57s-.07-37.56,0-37.69H42.19V42.19H32.81V39.84a2.34,2.34,0,1,0-4.68,0v2.35H18.75c-3,0-4.69,2.45-4.69,5.35V88.42A18.92,18.92,0,0,1,18.75,84.57Z" />
            <path
                d="M30.44,82.19V82a2.34,2.34,0,0,0-4.68,0v.17A18.36,18.36,0,0,1,28.13,82,17.69,17.69,0,0,1,30.44,82.19Z" />
            <path d="M39.82,82a2.35,2.35,0,0,0-4.69,0V83.4a18.82,18.82,0,0,1,4.69,2.75Z" />
            <path
                d="M51.56,4.69H98.44V111.87a22.13,22.13,0,0,1,4.69-2.54V4.69A4.69,4.69,0,0,0,98.44,0H51.56a4.68,4.68,0,0,0-4.68,4.69V109.33a21.78,21.78,0,0,1,4.68,2.53Z" />
            <g style="clip-path:url(#clip-path-4)">
                <path
                    d="M4.69,111.87V79.57A2.29,2.29,0,0,1,7,77.34H9.38V72.66H7a7,7,0,0,0-7,6.91v36.82A22.09,22.09,0,0,1,4.69,111.87Z" />
            </g>
        </g>
    </g>
</svg>