<svg xmlns="http://www.w3.org/2000/svg" xmlns:xlink="http://www.w3.org/1999/xlink" viewBox="0 0 149.32 150"
    fill="#377dff">
    <defs>
        <clipPath id="clip-path">
            <rect width="149.32" height="150" style="fill:none" />
        </clipPath>
    </defs>
    <g id="Layer_2" data-name="Layer 2">
        <g id="Layer_1-2" data-name="Layer 1">
            <g style="clip-path:url(#clip-path)">
                <path
                    d="M.31,52.65V12.91a12.28,12.28,0,0,1,1-4.74A11.69,11.69,0,0,1,2.41,6,12.14,12.14,0,0,1,4,4.14,12.7,12.7,0,0,1,5.83,2.59,12.28,12.28,0,0,1,8,1.45,12.54,12.54,0,0,1,10.31.74,13,13,0,0,1,12.72.49H72.33a13.07,13.07,0,0,1,2.42.25,12.54,12.54,0,0,1,2.33.71,12.17,12.17,0,0,1,4,2.69A11.65,11.65,0,0,1,82.65,6,13,13,0,0,1,83.8,8.17a13.24,13.24,0,0,1,.71,2.32,12.32,12.32,0,0,1,.23,2.42V15.4A2.39,2.39,0,0,1,84,17.15a2.22,2.22,0,0,1-.81.54,2.47,2.47,0,0,1-1.9,0,2.27,2.27,0,0,1-.8-.54,2.46,2.46,0,0,1-.73-1.75V12.91a7.91,7.91,0,0,0-.14-1.45,7.8,7.8,0,0,0-.43-1.4,7.5,7.5,0,0,0-.69-1.28,6.74,6.74,0,0,0-.93-1.13,6.36,6.36,0,0,0-1.13-.93A7.5,7.5,0,0,0,75.18,6a6.84,6.84,0,0,0-1.4-.42,7.07,7.07,0,0,0-1.45-.15H12.72a7.21,7.21,0,0,0-1.45.15A6.75,6.75,0,0,0,9.88,6a7.6,7.6,0,0,0-1.29.69,7.17,7.17,0,0,0-1.13.93,6.68,6.68,0,0,0-.92,1.13,6.91,6.91,0,0,0-.7,1.28,8.66,8.66,0,0,0-.42,1.4,7.13,7.13,0,0,0-.14,1.45V52.65a7.06,7.06,0,0,0,.14,1.45,8.37,8.37,0,0,0,.42,1.4,7.33,7.33,0,0,0,.7,1.29,7.58,7.58,0,0,0,.92,1.13,7.7,7.7,0,0,0,1.13.92,7.6,7.6,0,0,0,1.29.69,6.75,6.75,0,0,0,1.39.42,7.21,7.21,0,0,0,1.45.15h7.46a2.36,2.36,0,0,1,1.75.73L35.81,74.7a1,1,0,0,0,1.1.18,1,1,0,0,0,.65-.91V62.58a2.64,2.64,0,0,1,.19-.95,2.57,2.57,0,0,1,.54-.8,2.27,2.27,0,0,1,.8-.54A2.41,2.41,0,0,1,40,60.1H57.43a2.46,2.46,0,0,1,1.75.73,2.27,2.27,0,0,1,.54.8,2.44,2.44,0,0,1,.19.95,2.37,2.37,0,0,1-.19,1,2.3,2.3,0,0,1-.54.81,2.57,2.57,0,0,1-.8.54,2.41,2.41,0,0,1-1,.19H42.53V74a6,6,0,0,1-.26,1.74,5.79,5.79,0,0,1-.75,1.59,5.67,5.67,0,0,1-1.19,1.3,5.73,5.73,0,0,1-1.5.91,6,6,0,0,1-1.71.43,6.11,6.11,0,0,1-1.76-.09,6,6,0,0,1-1.65-.59,5.88,5.88,0,0,1-1.42-1.05L19.15,65.07H12.72a12.17,12.17,0,0,1-2.41-.25A11.19,11.19,0,0,1,8,64.11,11.64,11.64,0,0,1,5.83,63,12.63,12.63,0,0,1,4,61.43a12.71,12.71,0,0,1-1.54-1.89A11.94,11.94,0,0,1,1.26,57.4a12.54,12.54,0,0,1-.71-2.33A12.34,12.34,0,0,1,.31,52.65Zm149-17.38V75a13.16,13.16,0,0,1-.25,2.42,11.38,11.38,0,0,1-.71,2.33,12.42,12.42,0,0,1-9,7.43,12.34,12.34,0,0,1-2.42.24H115.58l-13.15,13.14a6,6,0,0,1-1.41,1,5.88,5.88,0,0,1-1.66.59,5.78,5.78,0,0,1-1.76.09,6,6,0,0,1-4.39-2.64,6.13,6.13,0,0,1-.76-1.59,6,6,0,0,1-.25-1.74v-8.9H77.3a12.19,12.19,0,0,1-2.42-.24,12.49,12.49,0,0,1-4.48-1.86,12.75,12.75,0,0,1-1.88-1.54A13.24,13.24,0,0,1,67,81.9a12.64,12.64,0,0,1-1.14-2.15,12.78,12.78,0,0,1-.71-2.33A12.34,12.34,0,0,1,64.88,75V35.27A12.6,12.6,0,0,1,67,28.37a12.7,12.7,0,0,1,1.55-1.88,12.08,12.08,0,0,1,4-2.69,11.63,11.63,0,0,1,2.33-.71,12.19,12.19,0,0,1,2.42-.24h59.6a12.34,12.34,0,0,1,2.42.24,11.83,11.83,0,0,1,2.33.71,12.55,12.55,0,0,1,2.14,1.14,12.29,12.29,0,0,1,4.57,5.58,11.11,11.11,0,0,1,.71,2.32A13.18,13.18,0,0,1,149.32,35.27Zm-5,0a7.16,7.16,0,0,0-.15-1.46,6.57,6.57,0,0,0-.42-1.39,7.6,7.6,0,0,0-.69-1.29,7.21,7.21,0,0,0-.92-1.13,7.65,7.65,0,0,0-1.13-.93,7.23,7.23,0,0,0-1.29-.68,7.56,7.56,0,0,0-1.4-.43,7.84,7.84,0,0,0-1.45-.15H77.3a8,8,0,0,0-1.46.15,7.46,7.46,0,0,0-1.39.43,6.61,6.61,0,0,0-1.29.68A7.17,7.17,0,0,0,72,30a7.26,7.26,0,0,0-.93,1.13,6.91,6.91,0,0,0-.68,1.29A6.59,6.59,0,0,0,70,33.81a8,8,0,0,0-.15,1.46V75A7.84,7.84,0,0,0,70,76.45a6.87,6.87,0,0,0,.43,1.4,7.23,7.23,0,0,0,.68,1.29A8.33,8.33,0,0,0,72,80.27a7.7,7.7,0,0,0,1.13.92,7.24,7.24,0,0,0,1.29.69,7.46,7.46,0,0,0,1.39.43,7.94,7.94,0,0,0,1.46.14H94.68a2.5,2.5,0,0,1,1.76.73A2.38,2.38,0,0,1,97,84a2.41,2.41,0,0,1,.19,1V96.32a1.07,1.07,0,0,0,1.76.73l13.87-13.87a2.39,2.39,0,0,1,1.76-.73H136.9a7.83,7.83,0,0,0,1.45-.14,7.56,7.56,0,0,0,1.4-.43,8,8,0,0,0,1.29-.69,7.15,7.15,0,0,0,2.05-2,8,8,0,0,0,.69-1.29,6.84,6.84,0,0,0,.42-1.4,7.07,7.07,0,0,0,.15-1.45ZM51.49,27.81l-2.83,9.94h6.28a2.42,2.42,0,0,1,1,.19,2.38,2.38,0,0,1,.8.53,2.73,2.73,0,0,1,.54.81,2.47,2.47,0,0,1,0,1.9,2.61,2.61,0,0,1-.54.81,2.57,2.57,0,0,1-.8.54,2.6,2.6,0,0,1-1,.18h-7.7l-2.32,8.14a2.45,2.45,0,0,1-.89,1.3,2.48,2.48,0,0,1-1.5.5,2.74,2.74,0,0,1-.69-.1,2.46,2.46,0,0,1-1.48-1.17,2.6,2.6,0,0,1-.3-.93,2.46,2.46,0,0,1,.08-1l1.93-6.77H32.34L30,50.85a2.51,2.51,0,0,1-.89,1.3,2.48,2.48,0,0,1-1.5.5,2.6,2.6,0,0,1-.68-.1,2.39,2.39,0,0,1-.87-.44,2.41,2.41,0,0,1-.62-.73,2.6,2.6,0,0,1-.3-.93,2.46,2.46,0,0,1,.08-1l1.93-6.77h-7a2.64,2.64,0,0,1-1-.18,2.57,2.57,0,0,1-.8-.54,2.61,2.61,0,0,1-.54-.81,2.47,2.47,0,0,1,0-1.9,2.73,2.73,0,0,1,.54-.81,2.38,2.38,0,0,1,.8-.53,2.45,2.45,0,0,1,1-.19h8.41l2.84-9.94H25.15a2.47,2.47,0,0,1-2.3-1.53,2.37,2.37,0,0,1-.19-1,2.41,2.41,0,0,1,.19-.95,2.55,2.55,0,0,1,.54-.81,2.5,2.5,0,0,1,1.76-.72h7.7l2.32-8.14a2.6,2.6,0,0,1,.44-.86,2.75,2.75,0,0,1,.74-.62,2.35,2.35,0,0,1,.93-.29,2.41,2.41,0,0,1,1,.08,2.34,2.34,0,0,1,.86.44,2.45,2.45,0,0,1,.63.73,2.55,2.55,0,0,1,.3.92,2.64,2.64,0,0,1-.08,1L38,22.85h9.73l2.32-8.14a2.45,2.45,0,0,1,.45-.86,2.47,2.47,0,0,1,.74-.62,2.26,2.26,0,0,1,.92-.29,2.4,2.4,0,0,1,1,.08,2.34,2.34,0,0,1,.86.44,2.45,2.45,0,0,1,.63.73,2.55,2.55,0,0,1,.3.92,2.64,2.64,0,0,1-.08,1l-1.93,6.77h7a2.37,2.37,0,0,1,1,.19,2.42,2.42,0,0,1,.81.53,2.73,2.73,0,0,1,.54.81,2.6,2.6,0,0,1,.19.95,2.56,2.56,0,0,1-.19,1,2.73,2.73,0,0,1-.54.81,2.61,2.61,0,0,1-.81.54,2.55,2.55,0,0,1-1,.18Zm-5.16,0H36.6l-2.84,9.94h9.73Zm83.12,27.32V70a7,7,0,0,1-.15,1.45,7.12,7.12,0,0,1-.42,1.41,7.9,7.9,0,0,1-.69,1.28,7.7,7.7,0,0,1-.92,1.13,7.58,7.58,0,0,1-1.13.92,8,8,0,0,1-1.29.7,8.37,8.37,0,0,1-1.4.42,7.91,7.91,0,0,1-1.45.14H109.58a20.23,20.23,0,0,1-10.39-2.91,5,5,0,0,1-4.51,2.91h-5a5,5,0,0,1-5-5V50.17a5,5,0,0,1,.39-1.9,5,5,0,0,1,2.68-2.69,5,5,0,0,1,1.9-.38h5a5,5,0,0,1,1.67.29,4.81,4.81,0,0,1,1.48.84,4.88,4.88,0,0,1,1.11,1.29,5,5,0,0,1,.61,1.58,9.82,9.82,0,0,0,1.63-1.39,11.75,11.75,0,0,0,3.44-7.44,7.11,7.11,0,0,1,.39-2.89,7.15,7.15,0,0,1,7-4.7,6.26,6.26,0,0,1,5.29,3.16,14.49,14.49,0,0,1,.81,11.74H122a7.14,7.14,0,0,1,1.45.15,6.84,6.84,0,0,1,1.4.42,8,8,0,0,1,1.29.69,7.15,7.15,0,0,1,2,2.05,8,8,0,0,1,.69,1.29,6.84,6.84,0,0,1,.42,1.4A7.14,7.14,0,0,1,129.45,55.13ZM94.68,72.52V50.17h-5V72.52Zm29.8-17.39a2.37,2.37,0,0,0-.19-1A2.45,2.45,0,0,0,123,52.84a2.37,2.37,0,0,0-1-.19h-7.45a2.15,2.15,0,0,1-.62-.08,2.27,2.27,0,0,1-.58-.23,2.38,2.38,0,0,1-.51-.37,2.28,2.28,0,0,1-.39-.48,2.12,2.12,0,0,1-.27-.57,2.52,2.52,0,0,1-.11-.61,2.67,2.67,0,0,1,0-.63,2.57,2.57,0,0,1,.2-.59c2.23-4.64,2-8.62.84-10.51-.2-.31-.6-.83-1.09-.83a2.48,2.48,0,0,0-1.94.64,2.2,2.2,0,0,0-.54,1.7,16.25,16.25,0,0,1-4.79,11.13,12.55,12.55,0,0,1-5.14,3.44V68.9a16.3,16.3,0,0,0,4.67,2.63,16.56,16.56,0,0,0,5.26,1H122a2.56,2.56,0,0,0,1-.19,2.73,2.73,0,0,0,.81-.54,2.47,2.47,0,0,0,.53-.81,2.37,2.37,0,0,0,.19-1ZM69.84,109.77a10.11,10.11,0,0,1-.75,3.8,10.54,10.54,0,0,1-.92,1.72,9.33,9.33,0,0,1-1.24,1.5,10.51,10.51,0,0,1-1.5,1.24,10.3,10.3,0,0,1-3.58,1.48,9.74,9.74,0,0,1-1.94.19v17.39a2.44,2.44,0,0,1-.5,1.5,2.46,2.46,0,0,1-1.32.89,2.49,2.49,0,0,1-2.79-1.12c-.26-.42-6.63-10.29-25.19-11.13v13.58a8.83,8.83,0,0,1-.17,1.7,8.49,8.49,0,0,1-.49,1.63,9,9,0,0,1-.8,1.5A9.1,9.1,0,0,1,27.56,147,8.63,8.63,0,0,1,26.24,148a8.29,8.29,0,0,1-1.5.8,9,9,0,0,1-1.63.5,8.73,8.73,0,0,1-1.69.17,8.83,8.83,0,0,1-1.7-.17,9.3,9.3,0,0,1-1.63-.5,8.29,8.29,0,0,1-1.5-.8A9.15,9.15,0,0,1,15.27,147a9.72,9.72,0,0,1-1.08-1.32,8.29,8.29,0,0,1-.8-1.5,9.3,9.3,0,0,1-.5-1.63,8.83,8.83,0,0,1-.17-1.7V126.42a17.68,17.68,0,0,1-2.87-1.14,17.5,17.5,0,0,1-2.63-1.64,18,18,0,0,1-2.29-2.08A16.81,16.81,0,0,1,3,119.11a17.39,17.39,0,0,1-1.43-2.74,18,18,0,0,1-.91-3,16.84,16.84,0,0,1-.38-3.08,17.63,17.63,0,0,1,.17-3.08,17.33,17.33,0,0,1,2-5.85,17.72,17.72,0,0,1,1.72-2.57,18.12,18.12,0,0,1,2.15-2.23,17.64,17.64,0,0,1,5.31-3.14,17.05,17.05,0,0,1,3-.81,16.79,16.79,0,0,1,3.08-.27h9.94c20.51,0,27.4-10.78,27.68-11.23a2.48,2.48,0,0,1,4.6,1.29V99.83a9.75,9.75,0,0,1,1.94.2,10,10,0,0,1,1.86.56,10.15,10.15,0,0,1,1.72.92,11.16,11.16,0,0,1,1.5,1.23A10,10,0,0,1,69.09,106a9.27,9.27,0,0,1,.56,1.86A9.67,9.67,0,0,1,69.84,109.77ZM17.69,122.19h7.46V97.35H17.69a12.34,12.34,0,0,0-2.42.24,11.83,11.83,0,0,0-2.33.71,12.35,12.35,0,0,0-5.57,4.57A12.69,12.69,0,0,0,6.22,105a11.91,11.91,0,0,0-.7,2.32,12.54,12.54,0,0,0,.7,7.18,12.69,12.69,0,0,0,1.15,2.15,13.16,13.16,0,0,0,1.54,1.88,12.79,12.79,0,0,0,4,2.69,12.54,12.54,0,0,0,2.33.71A13.15,13.15,0,0,0,17.69,122.19Zm7.46,18.62V127.15H17.69v13.66a3.61,3.61,0,0,0,.29,1.42,3.67,3.67,0,0,0,.81,1.22,3.65,3.65,0,0,0,2.63,1.09,3.71,3.71,0,0,0,3.44-2.31A3.61,3.61,0,0,0,25.15,140.81Zm29.79-52c-4.37,3.65-12.24,8-24.83,8.48v25.05c12.59.52,20.46,4.84,24.83,8.49Zm9.94,21a5,5,0,0,0-.38-1.9,4.91,4.91,0,0,0-1.08-1.61,4.76,4.76,0,0,0-1.61-1.08,5,5,0,0,0-1.9-.38v9.93a4.78,4.78,0,0,0,1.9-.38,4.88,4.88,0,0,0,1.61-1.07,5,5,0,0,0,1.08-1.61A5,5,0,0,0,64.88,109.77Zm19.86-2.48H77.3a2.64,2.64,0,0,0-1,.18,2.57,2.57,0,0,0-.8.54,2.61,2.61,0,0,0-.54.81,2.47,2.47,0,0,0,0,1.9,2.73,2.73,0,0,0,.54.81,2.38,2.38,0,0,0,.8.53,2.45,2.45,0,0,0,1,.19h7.44a2.45,2.45,0,0,0,1-.19,2.38,2.38,0,0,0,.8-.53,2.55,2.55,0,0,0,.54-.81,2.47,2.47,0,0,0,0-1.9,2.45,2.45,0,0,0-.54-.81,2.57,2.57,0,0,0-.8-.54A2.64,2.64,0,0,0,84.74,107.29Zm.79,12.54-7.45-2.48a2.42,2.42,0,0,0-1.9.13,2.43,2.43,0,0,0-.76.59,2.31,2.31,0,0,0-.48.85,2.4,2.4,0,0,0-.13,1,2.54,2.54,0,0,0,.26.93,2.5,2.5,0,0,0,.6.77,2.7,2.7,0,0,0,.84.48L84,124.54a2.4,2.4,0,0,0,1,.12,2.31,2.31,0,0,0,.93-.26,2.2,2.2,0,0,0,.76-.59,2.35,2.35,0,0,0,.48-.84,2.4,2.4,0,0,0,.13-1,2.48,2.48,0,0,0-.26-.93,2.33,2.33,0,0,0-.59-.77A2.42,2.42,0,0,0,85.53,119.83ZM77.3,102.32a2.32,2.32,0,0,0,.78-.13l7.45-2.48a2.75,2.75,0,0,0,.85-.48,2.47,2.47,0,0,0,.59-.77,2.54,2.54,0,0,0,.26-.93,2.67,2.67,0,0,0-.12-1,2.7,2.7,0,0,0-.48-.84,2.47,2.47,0,0,0-.77-.59A2.48,2.48,0,0,0,84,95l-7.45,2.49a2.32,2.32,0,0,0-.77.42,2.54,2.54,0,0,0-.57.65,2.55,2.55,0,0,0-.33,1.68,2.31,2.31,0,0,0,.3.82,2.1,2.1,0,0,0,.55.67,2.38,2.38,0,0,0,.75.45A2.47,2.47,0,0,0,77.3,102.32Z" />
            </g>
        </g>
    </g>
</svg>