<svg version="1.1" xmlns="http://www.w3.org/2000/svg" xmlns:xlink="http://www.w3.org/1999/xlink" viewBox="0 0 107 10">
    <path fill="#377dff" d="M1,8.7c4.2,0.5,8.4,0.4,12.5-0.5C17,7.3,20.4,6,23.8,4.8c4.2-1.5,8.5-2.6,13-3c1.9-0.2,3.9-0.1,5.6,0.7
			c1.3,0.6,2.4,1.5,3.4,2.5c1,1,2,2,3.1,2.8c1.4,1,3.1,1.5,4.8,1.6c4,0.3,7.8-1.6,11.3-3.2c2.6-1.2,5.8-3.2,8.6-1.4
			c2,1.3,3,4,5.5,4.5c1.5,0.3,3.2-0.5,4.6-0.9c1.8-0.6,3.7-1.2,5.5-1.8c4.2-1.4,8.4-2.6,12.8-3.2c1.3-0.2,2.6-0.3,3.9-0.5
			c0.6-0.1,0.6-1.1,0-1c-4.7,0.4-9.3,1.3-13.9,2.7C88.4,5.5,84.7,6.9,81,8c-1.2,0.3-2.2,0.1-3.2-0.7c-0.9-0.8-1.6-1.8-2.5-2.7
			c-1-0.9-2.1-1.6-3.5-1.7c-1.5-0.2-3,0.4-4.3,0.9c-3.6,1.5-7,3.5-10.8,4.3c-1.9,0.4-4,0.3-5.8-0.5c-1.3-0.6-2.4-1.5-3.4-2.5
			c-1-1-2-2-3.1-2.8c-1.3-0.9-2.8-1.5-4.5-1.6c-2.3-0.3-4.6,0.2-6.9,0.6c-2.2,0.4-4.3,0.9-6.4,1.5c-3.6,1.1-7,2.5-10.5,3.6
			C12.3,7.6,8.4,8.2,4.5,8C3.3,8,2.1,7.9,1,7.7C0.4,7.6,0.4,8.6,1,8.7L1,8.7z" />
</svg>